<svg width="685.1599853515625px" height="214.44000854492188px" xmlns="http://www.w3.org/2000/svg" viewBox="-92.57999267578123 -32.22000427246094 685.1599853515625 214.44000854492188" style="background: none;" preserveAspectRatio="xMidYMid"><defs><filter id="editing-jagged" x="-100%" y="-100%" width="300%" height="300%"><feTurbulence result="turb" baseFrequency="0.1" numOctaves="1" seed="1"></feTurbulence><feDisplacementMap in="SourceGraphic" in2="turb" scale="10"></feDisplacementMap></filter></defs><g filter="url(#editing-jagged)"><g transform="translate(5.30000638961792, 119.71000099182129)"><path d="M5.47 0L5.47 0L5.47 0Q5.80-1.37 6.04-3.31L6.04-3.31L6.04-3.31Q6.29-5.25 6.29-7.33L6.29-7.33L6.29-7.33Q6.29-9.24 6.02-11.07L6.02-11.07L6.02-11.07Q5.74-12.91 5.47-14.22L5.47-14.22L5.47-14.22Q7.93-14.22 9.79-14.60L9.79-14.60L9.79-14.60Q11.65-14.98 12.91-15.89L12.91-15.89L12.91-15.89Q14.16-16.79 14.79-18.35L14.79-18.35L14.79-18.35Q15.42-19.91 15.42-22.26L15.42-22.26L15.42-22.26Q15.42-26.85 15.18-30.13L15.18-30.13L15.18-30.13Q14.93-33.41 14.46-35.55L14.46-35.55L14.46-35.55Q14-37.68 13.29-38.80L13.29-38.80L13.29-38.80Q12.58-39.92 11.65-40.20L11.65-40.20L11.65-40.20Q12.63-40.52 13.34-41.37L13.34-41.37L13.34-41.37Q14.05-42.22 14.52-44.13L14.52-44.13L14.52-44.13Q14.98-46.05 15.20-49.25L15.20-49.25L15.20-49.25Q15.42-52.45 15.42-57.48L15.42-57.48L15.42-57.48Q15.42-59.66 14.71-61.03L14.71-61.03L14.71-61.03Q14-62.40 12.80-63.19L12.80-63.19L12.80-63.19Q11.59-63.98 9.98-64.26L9.98-64.26L9.98-64.26Q8.37-64.53 6.51-64.53L6.51-64.53L5.47-64.53L5.47-64.53Q5.74-65.84 6.02-67.57L6.02-67.57L6.02-67.57Q6.29-69.29 6.29-71.20L6.29-71.20L6.29-71.20Q6.29-73.23 6.04-75.30L6.04-75.30L6.04-75.30Q5.80-77.38 5.47-78.75L5.47-78.75L5.47-78.75Q6.51-78.37 8.75-78.04L8.75-78.04L8.75-78.04Q10.99-77.71 13.89-77.44L13.89-77.44L13.89-77.44Q16.79-77.16 20.04-77L20.04-77L20.04-77Q23.30-76.84 26.41-76.84L26.41-76.84L26.41-76.84Q29.59-76.84 32.84-77L32.84-77L32.84-77Q36.09-77.16 38.96-77.44L38.96-77.44L38.96-77.44Q41.84-77.71 44.02-78.04L44.02-78.04L44.02-78.04Q46.21-78.37 47.30-78.75L47.30-78.75L47.30-78.75Q46.98-77.38 46.73-75.30L46.73-75.30L46.73-75.30Q46.48-73.23 46.48-71.20L46.48-71.20L46.48-71.20Q46.48-69.29 46.76-67.57L46.76-67.57L46.76-67.57Q47.03-65.84 47.30-64.53L47.30-64.53L46.16-64.53L46.16-64.53Q44.19-64.53 42.55-64.26L42.55-64.26L42.55-64.26Q40.91-63.98 39.76-63.19L39.76-63.19L39.76-63.19Q38.61-62.40 37.98-61.03L37.98-61.03L37.98-61.03Q37.35-59.66 37.35-57.48L37.35-57.48L37.35-57.48Q37.35-53.54 37.49-50.78L37.49-50.78L37.49-50.78Q37.63-48.02 37.90-46.10L37.90-46.10L37.90-46.10Q39.10-45.72 40.85-45.72L40.85-45.72L40.85-45.72Q41.84-45.72 42.90-45.72L42.90-45.72L42.90-45.72Q43.97-45.72 45.23-45.77L45.23-45.77L45.23-45.77Q46.48-45.83 48.04-45.86L48.04-45.86L48.04-45.86Q49.60-45.88 51.63-45.99L51.63-45.99L51.63-45.99Q54.52-47.74 56.90-49.93L56.90-49.93L56.90-49.93Q59.28-52.12 60.95-54.22L60.95-54.22L60.95-54.22Q62.62-56.33 63.55-58.13L63.55-58.13L63.55-58.13Q64.48-59.94 64.48-60.92L64.48-60.92L64.48-60.92Q64.48-62.02 64.15-62.73L64.15-62.73L64.15-62.73Q63.82-63.44 62.97-63.85L62.97-63.85L62.97-63.85Q62.13-64.26 60.59-64.39L60.59-64.39L60.59-64.39Q59.06-64.53 56.71-64.53L56.71-64.53L56.71-64.53Q57.15-65.84 57.34-67.84L57.34-67.84L57.34-67.84Q57.53-69.84 57.53-71.53L57.53-71.53L57.53-71.53Q57.53-73.34 57.31-75.36L57.31-75.36L57.31-75.36Q57.09-77.38 56.60-78.75L56.60-78.75L56.60-78.75Q57.70-78.26 59.94-77.90L59.94-77.90L59.94-77.90Q62.18-77.55 64.94-77.30L64.94-77.30L64.94-77.30Q67.70-77.05 70.77-76.95L70.77-76.95L70.77-76.95Q73.83-76.84 76.56-76.84L76.56-76.84L76.56-76.84Q78.97-76.84 81.65-77L81.65-77L81.65-77Q84.33-77.16 86.82-77.46L86.82-77.46L86.82-77.46Q89.30-77.77 91.38-78.09L91.38-78.09L91.38-78.09Q93.46-78.42 94.72-78.75L94.72-78.75L94.72-78.75Q94.39-78.09 94.23-77.14L94.23-77.14L94.23-77.14Q94.06-76.18 93.98-75.11L93.98-75.11L93.98-75.11Q93.90-74.05 93.90-72.95L93.90-72.95L93.90-72.95Q93.90-71.86 93.90-70.98L93.90-70.98L93.90-70.98Q93.90-69.29 94.09-67.57L94.09-67.57L94.09-67.57Q94.28-65.84 94.72-64.53L94.72-64.53L94.72-64.53Q92.37-64.53 90.29-63.68L90.29-63.68L90.29-63.68Q88.21-62.84 86.49-61.47L86.49-61.47L86.49-61.47Q84.77-60.10 83.40-58.32L83.40-58.32L83.40-58.32Q82.03-56.55 81.10-54.66L81.10-54.66L81.10-54.66Q80.17-52.77 79.68-50.94L79.68-50.94L79.68-50.94Q79.19-49.11 79.19-47.63L79.19-47.63L79.19-47.63Q77.55-47.25 75.85-46.54L75.85-46.54L75.85-46.54Q74.16-45.83 72.52-44.95L72.52-44.95L72.52-44.95Q70.88-44.08 69.34-43.04L69.34-43.04L69.34-43.04Q67.81-42 66.55-40.96L66.55-40.96L66.55-40.96Q68.30-39.21 71.15-37.63L71.15-37.63L71.15-37.63Q73.99-36.04 76.97-34.81L76.97-34.81L76.97-34.81Q79.95-33.58 82.61-32.84L82.61-32.84L82.61-32.84Q85.26-32.10 86.68-32.10L86.68-32.10L86.68-32.10Q86.35-30.46 86.35-28.82L86.35-28.82L86.35-28.82Q86.35-25.92 87.25-23.27L87.25-23.27L87.25-23.27Q88.16-20.62 89.74-18.62L89.74-18.62L89.74-18.62Q91.33-16.63 93.46-15.42L93.46-15.42L93.46-15.42Q95.59-14.22 98.05-14.22L98.05-14.22L98.05-14.22Q97.62-12.91 97.54-11.07L97.54-11.07L97.54-11.07Q97.45-9.24 97.45-7.33L97.45-7.33L97.45-7.33Q97.45-5.25 97.54-3.31L97.54-3.31L97.54-3.31Q97.62-1.37 98.11 0L98.11 0L98.11 0Q97.56-0.22 95.76-0.46L95.76-0.46L95.76-0.46Q93.95-0.71 91.63-0.90L91.63-0.90L91.63-0.90Q89.30-1.09 86.84-1.23L86.84-1.23L86.84-1.23Q84.38-1.37 82.47-1.37L82.47-1.37L82.47-1.37Q81.16-1.37 79.38-1.34L79.38-1.34L79.38-1.34Q77.60-1.31 75.61-1.26L75.61-1.26L75.61-1.26Q73.61-1.20 71.59-1.12L71.59-1.12L71.59-1.12Q69.56-1.04 67.79-0.88L67.79-0.88L67.79-0.88Q66.01-0.71 64.64-0.49L64.64-0.49L64.64-0.49Q63.27-0.27 62.62 0L62.62 0L62.62 0Q63.22-1.15 63.49-2.65L63.49-2.65L63.49-2.65Q63.77-4.16 63.77-5.74L63.77-5.74L63.77-5.74Q63.77-8.31 63.14-10.69L63.14-10.69L63.14-10.69Q62.51-13.07 61.41-14.22L61.41-14.22L61.41-14.22Q62.84-15.04 63.68-16.00L63.68-16.00L63.68-16.00Q64.53-16.95 64.97-18.05L64.97-18.05L64.97-18.05Q65.41-19.14 65.54-20.45L65.54-20.45L65.54-20.45Q65.68-21.77 65.68-23.24L65.68-23.24L65.68-23.24Q65.68-25.43 64.26-27.64L64.26-27.64L64.26-27.64Q62.84-29.86 60.54-31.58L60.54-31.58L60.54-31.58Q58.24-33.30 55.37-34.40L55.37-34.40L55.37-34.40Q52.50-35.49 49.55-35.49L49.55-35.49L49.55-35.49Q48.84-35.49 47.93-35.52L47.93-35.52L47.93-35.52Q47.03-35.55 45.94-35.55L45.94-35.55L45.94-35.55Q44.08-35.55 42-35.30L42-35.30L42-35.30Q39.92-35.05 38.01-34.23L38.01-34.23L38.01-34.23Q37.35-30.02 37.35-22.26L37.35-22.26L37.35-22.26Q37.35-19.91 37.87-18.35L37.87-18.35L37.87-18.35Q38.39-16.79 39.59-15.89L39.59-15.89L39.59-15.89Q40.80-14.98 42.68-14.60L42.68-14.60L42.68-14.60Q44.57-14.22 47.30-14.22L47.30-14.22L47.30-14.22Q47.03-12.91 46.76-11.07L46.76-11.07L46.76-11.07Q46.48-9.24 46.48-7.33L46.48-7.33L46.48-7.33Q46.48-5.25 46.73-3.31L46.73-3.31L46.73-3.31Q46.98-1.37 47.30 0L47.30 0L47.30 0Q45.72-0.33 43.31-0.57L43.31-0.57L43.31-0.57Q40.91-0.82 38.06-1.01L38.06-1.01L38.06-1.01Q35.22-1.20 32.21-1.29L32.21-1.29L32.21-1.29Q29.20-1.37 26.41-1.37L26.41-1.37L26.41-1.37Q23.63-1.37 20.59-1.29L20.59-1.29L20.59-1.29Q17.55-1.20 14.71-1.01L14.71-1.01L14.71-1.01Q11.87-0.82 9.43-0.57L9.43-0.57L9.43-0.57Q7-0.33 5.47 0ZM106.91-8.04L106.91-8.04L106.91-8.04Q107.63-9.30 107.95-10.94L107.95-10.94L107.95-10.94Q108.28-12.58 108.28-14.27L108.28-14.27L108.28-14.27Q108.28-16.02 107.90-17.77L107.90-17.77L107.90-17.77Q107.52-19.52 106.91-20.62L106.91-20.62L106.91-20.62Q108.39-21.11 109.57-22.20L109.57-22.20L109.57-22.20Q110.74-23.30 111.59-24.66L111.59-24.66L111.59-24.66Q112.44-26.03 112.98-27.45L112.98-27.45L112.98-27.45Q113.53-28.88 113.70-30.08L113.70-30.08L113.70-30.08Q113.97-29.97 114.30-29.97L114.30-29.97L114.30-29.97Q114.63-29.97 115.01-29.97L115.01-29.97L115.01-29.97Q119.05-29.97 124.80-30.73L124.80-30.73L124.80-30.73Q130.54-31.50 137.21-32.76L137.21-32.76L137.21-32.76Q140.33-33.36 142.35-34.23L142.35-34.23L142.35-34.23Q144.38-35.11 145.58-36.23L145.58-36.23L145.58-36.23Q146.78-37.35 147.25-38.66L147.25-38.66L147.25-38.66Q147.71-39.98 147.71-41.45L147.71-41.45L147.71-41.45Q147.71-44.13 146.37-45.58L146.37-45.58L146.37-45.58Q145.03-47.03 141.75-47.03L141.75-47.03L141.75-47.03Q137.43-47.03 135.38-44.87L135.38-44.87L135.38-44.87Q133.33-42.71 133.33-37.79L133.33-37.79L133.33-37.79Q131.52-38.23 128.95-38.42L128.95-38.42L128.95-38.42Q126.38-38.61 123.27-38.61L123.27-38.61L123.27-38.61Q121.68-38.61 120.07-38.55L120.07-38.55L120.07-38.55Q118.45-38.50 116.92-38.42L116.92-38.42L116.92-38.42Q115.39-38.34 114.08-38.17L114.08-38.17L114.08-38.17Q112.77-38.01 111.84-37.79L111.84-37.79L111.84-37.79Q112.16-39.48 112.41-41.62L112.41-41.62L112.41-41.62Q112.66-43.75 112.66-46.59L112.66-46.59L112.66-46.59Q112.66-47.52 112.63-48.32L112.63-48.32L112.63-48.32Q112.60-49.11 112.52-49.88L112.52-49.88L112.52-49.88Q112.44-50.64 112.27-51.49L112.27-51.49L112.27-51.49Q112.11-52.34 111.84-53.38L111.84-53.38L111.84-53.38Q114.13-53.38 116.87-53.84L116.87-53.84L116.87-53.84Q119.60-54.30 122.20-55.07L122.20-55.07L122.20-55.07Q124.80-55.84 126.93-56.88L126.93-56.88L126.93-56.88Q129.06-57.91 130.21-59.06L130.21-59.06L130.21-59.06Q131.20-58.57 132.13-58.21L132.13-58.21L132.13-58.21Q133.05-57.86 134.26-57.61L134.26-57.61L134.26-57.61Q135.46-57.37 137.05-57.26L137.05-57.26L137.05-57.26Q138.63-57.15 140.88-57.15L140.88-57.15L140.88-57.15Q146.02-57.15 149.65-57.67L149.65-57.67L149.65-57.67Q153.29-58.19 154.88-59.06L154.88-59.06L154.88-59.06Q155.75-57.42 157.39-55.95L157.39-55.95L157.39-55.95Q159.03-54.47 160.97-53.40L160.97-53.40L160.97-53.40Q162.91-52.34 164.91-51.71L164.91-51.71L164.91-51.71Q166.91-51.08 168.55-51.08L168.55-51.08L169.04-51.08L169.04-51.08Q168.55-49.88 168.22-47.74L168.22-47.74L168.22-47.74Q167.89-45.61 167.67-42.96L167.67-42.96L167.67-42.96Q167.45-40.30 167.34-37.35L167.34-37.35L167.34-37.35Q167.23-34.40 167.15-31.53L167.15-31.53L167.15-31.53Q167.07-28.66 167.07-26.14L167.07-26.14L167.07-26.14Q167.07-23.63 167.07-21.88L167.07-21.88L167.07-21.88Q167.07-19.63 167.45-18.24L167.45-18.24L167.45-18.24Q167.84-16.84 168.96-16.08L168.96-16.08L168.96-16.08Q170.08-15.31 172.13-15.04L172.13-15.04L172.13-15.04Q174.18-14.77 177.46-14.77L177.46-14.77L177.46-14.77Q177.24-14.11 177.05-13.15L177.05-13.15L177.05-13.15Q176.86-12.20 176.70-11.10L176.70-11.10L176.70-11.10Q176.53-10.01 176.45-8.91L176.45-8.91L176.45-8.91Q176.37-7.82 176.37-6.89L176.37-6.89L176.37-6.89Q176.37-2.63 177.46 0L177.46 0L177.46 0Q176.15-0.60 173.20-0.98L173.20-0.98L173.20-0.98Q170.24-1.37 166.74-1.37L166.74-1.37L166.74-1.37Q162.80-1.37 159.77-0.98L159.77-0.98L159.77-0.98Q156.73-0.60 154.98 0L154.98 0L154.98 0Q154.55-3.01 153.32-4.81L153.32-4.81L153.32-4.81Q152.09-6.62 150.83-7.66L150.83-7.66L150.83-7.66Q148.91-7.05 147.33-6.04L147.33-6.04L147.33-6.04Q145.74-5.03 144.51-3.86L144.51-3.86L144.51-3.86Q143.28-2.68 142.52-1.50L142.52-1.50L142.52-1.50Q141.75-0.33 141.53 0.55L141.53 0.55L141.53 0.55Q140.27 0.22 139.26-0.11L139.26-0.11L139.26-0.11Q138.25-0.44 137.21-0.74L137.21-0.74L137.21-0.74Q136.17-1.04 134.97-1.20L134.97-1.20L134.97-1.20Q133.77-1.37 132.13-1.37L132.13-1.37L132.13-1.37Q130.43-1.37 128.54-1.20L128.54-1.20L128.54-1.20Q126.66-1.04 124.80-0.74L124.80-0.74L124.80-0.74Q122.94-0.44 121.32-0.11L121.32-0.11L121.32-0.11Q119.71 0.22 118.56 0.55L118.56 0.55L118.56 0.55Q117.63-0.98 116.27-2.49L116.27-2.49L116.27-2.49Q114.90-3.99 113.34-5.22L113.34-5.22L113.34-5.22Q111.78-6.45 110.11-7.22L110.11-7.22L110.11-7.22Q108.45-7.98 106.91-8.04ZM130.43-18.21L130.43-18.21L130.43-18.21Q130.43-16.90 130.98-15.89L130.98-15.89L130.98-15.89Q131.52-14.88 132.37-14.19L132.37-14.19L132.37-14.19Q133.22-13.51 134.26-13.15L134.26-13.15L134.26-13.15Q135.30-12.80 136.28-12.80L136.28-12.80L136.28-12.80Q138.09-12.80 139.97-13.51L139.97-13.51L139.97-13.51Q141.86-14.22 143.45-15.78L143.45-15.78L143.45-15.78Q145.03-17.34 146.13-19.85L146.13-19.85L146.13-19.85Q147.22-22.37 147.44-25.98L147.44-25.98L147.44-25.98Q142.73-25.87 139.48-25.35L139.48-25.35L139.48-25.35Q136.23-24.83 134.20-23.87L134.20-23.87L134.20-23.87Q132.18-22.91 131.30-21.49L131.30-21.49L131.30-21.49Q130.43-20.07 130.43-18.21ZM183.59 0L183.59 0L183.59 0Q184.02-1.42 184.19-3.39L184.19-3.39L184.19-3.39Q184.35-5.36 184.35-7.27L184.35-7.27L184.35-7.27Q184.35-9.02 184.13-10.77L184.13-10.77L184.13-10.77Q183.91-12.52 183.59-14.22L183.59-14.22L183.59-14.22Q186.65-14.22 188.64-14.49L188.64-14.49L188.64-14.49Q190.64-14.77 191.79-15.45L191.79-15.45L191.79-15.45Q192.94-16.13 193.38-17.39L193.38-17.39L193.38-17.39Q193.81-18.65 193.81-20.62L193.81-20.62L193.81-29.80L193.81-29.80Q193.81-31.55 193.57-33.30L193.57-33.30L193.57-33.30Q193.32-35.05 192.86-36.50L192.86-36.50L192.86-36.50Q192.39-37.95 191.68-38.94L191.68-38.94L191.68-38.94Q190.97-39.92 190.04-40.20L190.04-40.20L190.04-40.20Q192.01-40.85 192.91-43.18L192.91-43.18L192.91-43.18Q193.81-45.50 193.81-49.93L193.81-49.93L193.81-66.17L193.81-66.17Q193.76-68.52 193.21-69.92L193.21-69.92L193.21-69.92Q192.66-71.31 191.71-72.05L191.71-72.05L191.71-72.05Q190.75-72.79 189.36-73.04L189.36-73.04L189.36-73.04Q187.96-73.28 186.21-73.28L186.21-73.28L184.52-73.28L184.52-73.28Q184.95-74.38 185.28-76.32L185.28-76.32L185.28-76.32Q185.61-78.26 185.61-80.39L185.61-80.39L185.61-80.39Q185.61-82.47 185.31-84.41L185.31-84.41L185.31-84.41Q185.01-86.35 184.52-87.50L184.52-87.50L184.52-87.50Q185.55-87.34 187.03-87.23L187.03-87.23L187.03-87.23Q188.51-87.12 190.26-87.04L190.26-87.04L190.26-87.04Q192.01-86.95 193.98-86.90L193.98-86.90L193.98-86.90Q195.95-86.84 198.02-86.84L198.02-86.84L198.02-86.84Q200.81-86.84 203.66-86.95L203.66-86.95L203.66-86.95Q206.50-87.06 209.10-87.28L209.10-87.28L209.10-87.28Q211.70-87.50 213.91-87.88L213.91-87.88L213.91-87.88Q216.13-88.27 217.60-88.87L217.60-88.87L217.60-88.87Q216.51-86.73 215.82-84.11L215.82-84.11L215.82-84.11Q215.14-81.48 214.76-78.53L214.76-78.53L214.76-78.53Q214.38-75.58 214.27-72.35L214.27-72.35L214.27-72.35Q214.16-69.13 214.16-65.79L214.16-65.79L214.10-35.55L214.10-35.55Q215.36-35.38 216.75-35.38L216.75-35.38L216.75-35.38Q218.15-35.38 220.28-35.38L220.28-35.38L220.28-35.38Q221.65-35.38 223.59-35.90L223.59-35.90L223.59-35.90Q225.53-36.42 227.28-37.41L227.28-37.41L227.28-37.41Q229.03-38.39 230.26-39.79L230.26-39.79L230.26-39.79Q231.49-41.18 231.49-42.98L231.49-42.98L231.49-42.98Q231.49-43.91 230.29-44.63L230.29-44.63L230.29-44.63Q229.09-45.34 226.95-45.34L226.95-45.34L226.95-45.34Q225.64-45.34 224-45.01L224-45.01L224-45.01Q224.27-46.10 224.41-47.55L224.41-47.55L224.41-47.55Q224.55-49 224.55-50.42L224.55-50.42L224.55-50.42Q224.55-52.88 224.38-55.10L224.38-55.10L224.38-55.10Q224.22-57.31 223.89-59.06L223.89-59.06L223.89-59.06Q225.31-58.68 227.55-58.32L227.55-58.32L227.55-58.32Q229.80-57.97 232.50-57.72L232.50-57.72L232.50-57.72Q235.21-57.48 238.14-57.31L238.14-57.31L238.14-57.31Q241.06-57.15 243.85-57.15L243.85-57.15L243.85-57.15Q246.31-57.15 248.96-57.29L248.96-57.29L248.96-57.29Q251.62-57.42 253.97-57.67L253.97-57.67L253.97-57.67Q256.32-57.91 258.18-58.27L258.18-58.27L258.18-58.27Q260.04-58.63 260.97-59.06L260.97-59.06L260.97-59.06Q260.42-57.15 260.20-54.63L260.20-54.63L260.20-54.63Q259.98-52.12 259.98-49.49L259.98-49.49L259.98-49.49Q259.98-47.20 260.20-45.17L260.20-45.17L260.20-45.17Q260.42-43.15 260.86-41.73L260.86-41.73L260.86-41.73Q258.23-41.73 254.87-41.13L254.87-41.13L254.87-41.13Q251.51-40.52 248.31-39.29L248.31-39.29L248.31-39.29Q245.11-38.06 242.54-36.23L242.54-36.23L242.54-36.23Q239.97-34.40 238.98-31.94L238.98-31.94L238.98-31.94Q239.80-30.46 241.72-29.48L241.72-29.48L241.72-29.48Q243.63-28.49 245.98-27.92L245.98-27.92L245.98-27.92Q248.34-27.34 250.82-27.13L250.82-27.13L250.82-27.13Q253.31-26.91 255.34-26.91L255.34-26.91L255.34-26.91Q255.34-24.94 256.07-23.16L256.07-23.16L256.07-23.16Q256.81-21.38 258.15-19.99L258.15-19.99L258.15-19.99Q259.49-18.59 261.46-17.77L261.46-17.77L261.46-17.77Q263.43-16.95 265.89-16.95L265.89-16.95L265.89-16.95Q265.45-15.59 265.13-13.32L265.13-13.32L265.13-13.32Q264.80-11.05 264.80-8.59L264.80-8.59L264.80-8.59Q264.80-5.96 265.07-3.64L265.07-3.64L265.07-3.64Q265.34-1.31 265.89 0L265.89 0L265.89 0Q265.13-0.33 263.68-0.57L263.68-0.57L263.68-0.57Q262.23-0.82 260.37-1.01L260.37-1.01L260.37-1.01Q258.51-1.20 256.46-1.29L256.46-1.29L256.46-1.29Q254.41-1.37 252.49-1.37L252.49-1.37L252.49-1.37Q248.72-1.37 246.31-1.04L246.31-1.04L246.31-1.04Q243.91-0.71 242.10 0L242.10 0L242.10 0Q242.10-2.24 241.50-4.24L241.50-4.24L241.50-4.24Q240.90-6.23 239.91-7.71L239.91-7.71L239.91-7.71Q238.93-9.19 237.64-10.06L237.64-10.06L237.64-10.06Q236.36-10.94 234.99-10.94L234.99-10.94L234.99-10.94Q235.70-12.14 236.09-13.43L236.09-13.43L236.09-13.43Q236.47-14.71 236.47-16.13L236.47-16.13L236.47-16.13Q236.47-17.77 235.46-19.47L235.46-19.47L235.46-19.47Q234.45-21.16 232.39-22.53L232.39-22.53L232.39-22.53Q230.34-23.90 227.25-24.77L227.25-24.77L227.25-24.77Q224.16-25.65 220.01-25.65L220.01-25.65L220.01-25.65Q217.27-25.65 214.10-24.99L214.10-24.99L214.10-20.62L214.10-20.62Q214.10-18.65 214.81-17.39L214.81-17.39L214.81-17.39Q215.52-16.13 216.86-15.45L216.86-15.45L216.86-15.45Q218.20-14.77 220.09-14.49L220.09-14.49L220.09-14.49Q221.98-14.22 224.33-14.22L224.33-14.22L224.33-14.22Q224-13.07 223.81-11.38L223.81-11.38L223.81-11.38Q223.62-9.68 223.62-7.77L223.62-7.77L223.62-7.77Q223.62-5.69 223.75-3.58L223.75-3.58L223.75-3.58Q223.89-1.48 224.33 0L224.33 0L224.33 0Q222.85-0.27 220.36-0.52L220.36-0.52L220.36-0.52Q217.88-0.77 214.92-0.96L214.92-0.96L214.92-0.96Q211.97-1.15 208.77-1.26L208.77-1.26L208.77-1.26Q205.57-1.37 202.62-1.37L202.62-1.37L202.62-1.37Q199.99-1.37 197.23-1.29L197.23-1.29L197.23-1.29Q194.47-1.20 191.93-1.01L191.93-1.01L191.93-1.01Q189.38-0.82 187.20-0.57L187.20-0.57L187.20-0.57Q185.01-0.33 183.59 0ZM281.48-11.27L281.48-11.27L281.48-11.27Q283.28-13.45 283.88-16.84L283.88-16.84L283.88-16.84Q284.48-20.23 284.48-24.99L284.48-24.99L284.48-40.80L284.48-40.80Q284.43-41.78 284.18-42.57L284.18-42.57L284.18-42.57Q283.94-43.37 283.36-43.94L283.36-43.94L283.36-43.94Q282.79-44.52 281.80-44.84L281.80-44.84L281.80-44.84Q280.82-45.17 279.34-45.17L279.34-45.17L279.34-45.17Q278.52-45.17 277.57-45.06L277.57-45.06L277.57-45.06Q276.61-44.95 275.41-44.73L275.41-44.73L275.41-44.73Q275.68-46.32 275.79-48.18L275.79-48.18L275.79-48.18Q275.90-50.04 275.90-51.95L275.90-51.95L275.90-51.95Q275.90-53.70 275.79-55.40L275.79-55.40L275.79-55.40Q275.68-57.09 275.41-58.52L275.41-58.52L275.41-58.52Q275.95-58.13 276.77-57.89L276.77-57.89L276.77-57.89Q277.59-57.64 278.41-57.48L278.41-57.48L278.41-57.48Q279.23-57.31 279.95-57.23L279.95-57.23L279.95-57.23Q280.66-57.15 281.04-57.15L281.04-57.15L281.04-57.15Q282.63-57.15 283.42-58.38L283.42-58.38L283.42-58.38Q284.21-59.61 284.21-62.67L284.21-62.67L284.21-62.67Q284.21-63.16 284.18-64.04L284.18-64.04L284.18-64.04Q284.16-64.91 284.10-65.84L284.10-65.84L284.10-65.84Q284.05-66.77 283.91-67.59L283.91-67.59L283.91-67.59Q283.77-68.41 283.55-68.85L283.55-68.85L283.55-68.85Q283.99-68.74 284.43-68.74L284.43-68.74L284.43-68.74Q284.87-68.74 285.36-68.74L285.36-68.74L285.36-68.74Q288.15-68.74 291.24-69.67L291.24-69.67L291.24-69.67Q294.33-70.60 297.25-71.70L297.25-71.70L297.25-71.70Q300.18-72.79 302.70-73.72L302.70-73.72L302.70-73.72Q305.21-74.65 306.85-74.65L306.85-74.65L306.85-74.65Q306.41-73.34 306.14-71.75L306.14-71.75L306.14-71.75Q305.87-70.16 305.70-68.58L305.70-68.58L305.70-68.58Q305.54-66.99 305.46-65.49L305.46-65.49L305.46-65.49Q305.38-63.98 305.38-62.95L305.38-62.95L305.38-62.95Q305.38-61.14 305.81-60.02L305.81-60.02L305.81-60.02Q306.25-58.90 307.37-58.27L307.37-58.27L307.37-58.27Q308.49-57.64 310.49-57.39L310.49-57.39L310.49-57.39Q312.48-57.15 315.60-57.15L315.60-57.15L315.60-57.15Q316.91-57.15 318.69-57.18L318.69-57.18L318.69-57.18Q320.47-57.20 322.38-57.34L322.38-57.34L322.38-57.34Q324.30-57.48 326.18-57.75L326.18-57.75L326.18-57.75Q328.07-58.02 329.66-58.52L329.66-58.52L329.66-58.52Q329.11-57.09 328.89-55.18L328.89-55.18L328.89-55.18Q328.67-53.27 328.67-51.24L328.67-51.24L328.67-51.24Q328.67-48.95 328.89-46.98L328.89-46.98L328.89-46.98Q329.11-45.01 329.66-43.48L329.66-43.48L329.66-43.48Q327.80-43.64 325.58-43.86L325.58-43.86L325.58-43.86Q323.37-44.08 321.18-44.27L321.18-44.27L321.18-44.27Q318.99-44.46 317.13-44.60L317.13-44.60L317.13-44.60Q315.27-44.73 314.13-44.73L314.13-44.73L314.13-44.73Q311.39-44.73 309.61-44.49L309.61-44.49L309.61-44.49Q307.84-44.24 306.80-43.72L306.80-43.72L306.80-43.72Q305.76-43.20 305.35-42.41L305.35-42.41L305.35-42.41Q304.94-41.62 304.94-40.58L304.94-40.58L304.94-25.92L304.94-25.92Q304.94-23.79 305.18-21.41L305.18-21.41L305.18-21.41Q305.43-19.03 306.09-17.01L306.09-17.01L306.09-17.01Q306.74-14.98 307.89-13.64L307.89-13.64L307.89-13.64Q309.04-12.30 310.84-12.30L310.84-12.30L310.84-12.30Q312.81-12.30 314.15-13.10L314.15-13.10L314.15-13.10Q315.49-13.89 316.31-15.31L316.31-15.31L316.31-15.31Q317.13-16.73 317.49-18.68L317.49-18.68L317.49-18.68Q317.84-20.62 317.84-22.97L317.84-22.97L317.84-22.97Q319.05-22.70 321.07-22.42L321.07-22.42L321.07-22.42Q323.09-22.15 325.23-22.15L325.23-22.15L325.23-22.15Q327.30-22.15 329.14-22.42L329.14-22.42L329.14-22.42Q330.97-22.70 331.95-22.97L331.95-22.97L331.95-22.97Q331.52-21.77 331.32-19.61L331.32-19.61L331.32-19.61Q331.13-17.45 331.13-14.98L331.13-14.98L331.13-14.98Q331.13-12.52 331.30-10.39L331.30-10.39L331.30-10.39Q331.46-8.26 331.95-7.22L331.95-7.22L331.41-7.22L331.41-7.22Q329.38-7.22 327.06-6.59L327.06-6.59L327.06-6.59Q324.73-5.96 322.60-4.92L322.60-4.92L322.60-4.92Q320.47-3.88 318.69-2.60L318.69-2.60L318.69-2.60Q316.91-1.31 315.98 0L315.98 0L315.98 0Q315.55-0.33 314.32-0.57L314.32-0.57L314.32-0.57Q313.09-0.82 311.47-1.01L311.47-1.01L311.47-1.01Q309.86-1.20 308.05-1.29L308.05-1.29L308.05-1.29Q306.25-1.37 304.61-1.37L304.61-1.37L304.61-1.37Q302.97-1.37 301.19-1.29L301.19-1.29L301.19-1.29Q299.41-1.20 297.72-1.01L297.72-1.01L297.72-1.01Q296.02-0.82 294.63-0.57L294.63-0.57L294.63-0.57Q293.23-0.33 292.41 0L292.41 0L292.41 0Q291.92-1.91 290.91-3.75L290.91-3.75L290.91-3.75Q289.90-5.58 288.48-7.11L288.48-7.11L288.48-7.11Q287.05-8.64 285.28-9.73L285.28-9.73L285.28-9.73Q283.50-10.83 281.48-11.27ZM344.86-11.27L344.86-11.27L344.86-11.27Q346.61-13.45 347.27-16.84L347.27-16.84L347.27-16.84Q347.92-20.23 347.87-24.99L347.87-24.99L347.76-35.82L347.76-35.82Q347.70-38.17 347.21-39.57L347.21-39.57L347.21-39.57Q346.72-40.96 345.79-41.70L345.79-41.70L345.79-41.70Q344.86-42.44 343.49-42.68L343.49-42.68L343.49-42.68Q342.13-42.93 340.38-42.93L340.38-42.93L338.68-42.93L338.68-42.93Q339.12-44.02 339.45-45.96L339.45-45.96L339.45-45.96Q339.77-47.91 339.77-50.04L339.77-50.04L339.77-50.04Q339.77-52.12 339.47-54.06L339.47-54.06L339.47-54.06Q339.17-56 338.68-57.15L338.68-57.15L338.68-57.15Q340.38-56.88 343.05-56.77L343.05-56.77L343.05-56.77Q345.73-56.66 348.96-56.66L348.96-56.66L348.96-56.66Q352.02-56.66 355.33-56.79L355.33-56.79L355.33-56.79Q358.64-56.93 361.70-57.20L361.70-57.20L361.70-57.20Q364.77-57.48 367.39-57.94L367.39-57.94L367.39-57.94Q370.02-58.41 371.77-59.06L371.77-59.06L371.77-59.06Q370.67-56.93 369.99-54.22L369.99-54.22L369.99-54.22Q369.30-51.52 368.92-48.45L368.92-48.45L368.92-48.45Q368.54-45.39 368.43-42.08L368.43-42.08L368.43-42.08Q368.32-38.77 368.32-35.44L368.32-35.44L368.32-25.92L368.32-25.92Q368.32-23.79 368.59-21.82L368.59-21.82L368.59-21.82Q368.87-19.85 369.69-18.29L369.69-18.29L369.69-18.29Q370.51-16.73 371.98-15.80L371.98-15.80L371.98-15.80Q373.46-14.88 375.87-14.88L375.87-14.88L375.87-14.88Q378.33-14.88 380.87-15.37L380.87-15.37L380.87-15.37Q383.41-15.86 385.52-17.09L385.52-17.09L385.52-17.09Q387.63-18.32 388.94-20.40L388.94-20.40L388.94-20.40Q390.25-22.48 390.25-25.59L390.25-25.59L390.25-35.82L390.25-35.82Q390.20-37.90 389.89-39.27L389.89-39.27L389.89-39.27Q389.59-40.63 388.72-41.45L388.72-41.45L388.72-41.45Q387.84-42.27 386.29-42.60L386.29-42.60L386.29-42.60Q384.73-42.93 382.10-42.93L382.10-42.93L380.95-42.93L380.95-42.93Q381.39-44.02 381.72-45.96L381.72-45.96L381.72-45.96Q382.05-47.91 382.05-50.04L382.05-50.04L382.05-50.04Q382.05-52.12 381.75-54.06L381.75-54.06L381.75-54.06Q381.45-56 380.95-57.15L380.95-57.15L380.95-57.15Q382.65-56.88 385.33-56.77L385.33-56.77L385.33-56.77Q388.01-56.66 391.23-56.66L391.23-56.66L391.23-56.66Q394.30-56.66 397.61-56.79L397.61-56.79L397.61-56.79Q400.91-56.93 403.98-57.20L403.98-57.20L403.98-57.20Q407.04-57.48 409.66-57.94L409.66-57.94L409.66-57.94Q412.29-58.41 414.04-59.06L414.04-59.06L414.04-59.06Q412.89-57.75 412.18-55.92L412.18-55.92L412.18-55.92Q411.47-54.09 411.11-51.87L411.11-51.87L411.11-51.87Q410.76-49.66 410.65-47.14L410.65-47.14L410.65-47.14Q410.54-44.63 410.54-42.05L410.54-42.05L410.54-42.05Q410.54-40.36 410.57-38.69L410.57-38.69L410.57-38.69Q410.59-37.02 410.59-35.44L410.59-35.44L410.54-21.33L410.54-21.33Q410.54-19.09 410.68-17.69L410.68-17.69L410.68-17.69Q410.81-16.30 411.63-15.53L411.63-15.53L411.63-15.53Q412.45-14.77 414.23-14.49L414.23-14.49L414.23-14.49Q416.01-14.22 419.29-14.22L419.29-14.22L419.29-14.22Q418.85-12.96 418.61-11.13L418.61-11.13L418.61-11.13Q418.36-9.30 418.36-7.44L418.36-7.44L418.36-7.44Q418.36-5.36 418.55-3.31L418.55-3.31L418.55-3.31Q418.74-1.26 419.29 0L419.29 0L419.29 0Q417.98-0.60 415.02-0.98L415.02-0.98L415.02-0.98Q412.07-1.37 408.57-1.37L408.57-1.37L408.57-1.37Q404.63-1.37 401.41-0.98L401.41-0.98L401.41-0.98Q398.18-0.60 396.43 0L396.43 0L396.43 0Q396.43-1.91 396.07-3.39L396.07-3.39L396.07-3.39Q395.72-4.87 395.17-6.02L395.17-6.02L395.17-6.02Q394.63-7.16 393.91-7.98L393.91-7.98L393.91-7.98Q393.20-8.80 392.49-9.41L392.49-9.41L392.49-9.41Q390.20-8.97 388.06-7.93L388.06-7.93L388.06-7.93Q385.93-6.89 384.15-5.55L384.15-5.55L384.15-5.55Q382.38-4.21 381.12-2.73L381.12-2.73L381.12-2.73Q379.86-1.26 379.37 0L379.37 0L379.37 0Q378.93-0.33 377.70-0.57L377.70-0.57L377.70-0.57Q376.47-0.82 374.86-1.01L374.86-1.01L374.86-1.01Q373.24-1.20 371.44-1.29L371.44-1.29L371.44-1.29Q369.63-1.37 367.99-1.37L367.99-1.37L367.99-1.37Q366.35-1.37 364.57-1.29L364.57-1.29L364.57-1.29Q362.80-1.20 361.10-1.01L361.10-1.01L361.10-1.01Q359.41-0.82 358.01-0.57L358.01-0.57L358.01-0.57Q356.62-0.33 355.80 0L355.80 0L355.80 0Q355.30-1.91 354.29-3.75L354.29-3.75L354.29-3.75Q353.28-5.58 351.86-7.11L351.86-7.11L351.86-7.11Q350.44-8.64 348.66-9.73L348.66-9.73L348.66-9.73Q346.88-10.83 344.86-11.27ZM426.45-1.20L426.45-1.20L426.45-1.20Q426.89-2.35 427.14-4.68L427.14-4.68L427.14-4.68Q427.38-7 427.38-9.84L427.38-9.84L427.38-9.84Q427.38-12.14 427.11-14.49L427.11-14.49L427.11-14.49Q426.84-16.84 426.45-18.32L426.45-18.32L426.45-18.32Q427.11-17.99 428.34-17.75L428.34-17.75L428.34-17.75Q429.57-17.50 431.07-17.31L431.07-17.31L431.07-17.31Q432.58-17.12 434.25-17.04L434.25-17.04L434.25-17.04Q435.91-16.95 437.45-16.95L437.45-16.95L437.45-16.95Q440.40-16.95 442.94-17.31L442.94-17.31L442.94-17.31Q445.48-17.66 447.02-18.32L447.02-18.32L447.02-18.32Q447.02-16.73 447.48-15.34L447.48-15.34L447.48-15.34Q447.95-13.95 448.96-12.88L448.96-12.88L448.96-12.88Q449.97-11.81 451.58-11.18L451.58-11.18L451.58-11.18Q453.20-10.55 455.44-10.55L455.44-10.55L455.44-10.55Q458.39-10.55 460.17-11.70L460.17-11.70L460.17-11.70Q461.95-12.85 461.95-15.48L461.95-15.48L461.95-15.48Q461.95-17.55 460.55-19.09L460.55-19.09L460.55-19.09Q459.16-20.62 456.67-21.63L456.67-21.63L456.67-21.63Q454.18-22.64 450.73-23.13L450.73-23.13L450.73-23.13Q447.29-23.63 443.24-23.63L443.24-23.63L443.24-23.63Q441.98-23.63 440.48-23.60L440.48-23.60L440.48-23.60Q438.98-23.57 437.55-23.46L437.55-23.46L437.55-23.46Q436.13-23.35 434.96-23.16L434.96-23.16L434.96-23.16Q433.78-22.97 433.23-22.70L433.23-22.70L433.23-22.70Q433.23-24.12 432.22-25.70L432.22-25.70L432.22-25.70Q431.21-27.29 429.79-28.66L429.79-28.66L429.79-28.66Q428.37-30.02 426.81-31.01L426.81-31.01L426.81-31.01Q425.25-31.99 424.16-32.21L424.16-32.21L424.16-32.21Q424.59-32.70 424.92-33.58L424.92-33.58L424.92-33.58Q425.25-34.45 425.47-35.57L425.47-35.57L425.47-35.57Q425.69-36.70 425.80-37.93L425.80-37.93L425.80-37.93Q425.91-39.16 425.91-40.30L425.91-40.30L425.91-40.30Q425.91-42.77 425.50-45.14L425.50-45.14L425.50-45.14Q425.09-47.52 424.16-48.95L424.16-48.95L424.16-48.95Q426.13-49.33 428.09-50.29L428.09-50.29L428.09-50.29Q430.06-51.24 431.79-52.58L431.79-52.58L431.79-52.58Q433.51-53.92 434.85-55.59L434.85-55.59L434.85-55.59Q436.19-57.26 436.84-59.06L436.84-59.06L436.84-59.06Q437.39-58.73 439.03-58.41L439.03-58.41L439.03-58.41Q440.67-58.08 442.91-57.80L442.91-57.80L442.91-57.80Q445.16-57.53 447.73-57.37L447.73-57.37L447.73-57.37Q450.30-57.20 452.70-57.20L452.70-57.20L452.70-57.20Q457.13-57.20 459.76-57.97L459.76-57.97L459.76-57.97Q462.38-58.73 463.09-60.16L463.09-60.16L463.09-60.16Q463.86-59.12 465.42-58.32L465.42-58.32L465.42-58.32Q466.98-57.53 468.86-57.01L468.86-57.01L468.86-57.01Q470.75-56.49 472.77-56.25L472.77-56.25L472.77-56.25Q474.80-56 476.60-56L476.60-56L476.60-56Q477.70-56 478.60-56.11L478.60-56.11L478.60-56.11Q479.50-56.22 480.21-56.38L480.21-56.38L480.21-56.38Q480.05-55.23 479.91-54.28L479.91-54.28L479.91-54.28Q479.77-53.32 479.69-52.42L479.69-52.42L479.69-52.42Q479.61-51.52 479.55-50.59L479.55-50.59L479.55-50.59Q479.50-49.66 479.50-48.56L479.50-48.56L479.50-48.56Q479.50-46.48 479.64-44.46L479.64-44.46L479.64-44.46Q479.77-42.44 480.21-40.85L480.21-40.85L480.21-40.85Q479.28-41.45 477.07-41.70L477.07-41.70L477.07-41.70Q474.85-41.95 472.06-41.95L472.06-41.95L472.06-41.95Q470.53-41.95 468.92-41.86L468.92-41.86L468.92-41.86Q467.30-41.78 465.91-41.64L465.91-41.64L465.91-41.64Q464.52-41.51 463.45-41.32L463.45-41.32L463.45-41.32Q462.38-41.13 461.95-40.85L461.95-40.85L461.95-40.85Q461.95-44.46 459.43-46.51L459.43-46.51L459.43-46.51Q456.91-48.56 452.76-48.56L452.76-48.56L452.76-48.56Q449.31-48.56 447.92-47.33L447.92-47.33L447.92-47.33Q446.52-46.10 446.52-44.24L446.52-44.24L446.52-44.24Q446.52-42.44 448.36-40.80L448.36-40.80L448.36-40.80Q450.19-39.16 453.20-37.93L453.20-37.93L453.20-37.93Q456.20-36.70 459.98-35.98L459.98-35.98L459.98-35.98Q463.75-35.27 467.69-35.27L467.69-35.27L467.69-35.27Q468.67-35.27 469.68-35.33L469.68-35.33L469.68-35.33Q470.70-35.38 471.63-35.49L471.63-35.49L471.63-35.49Q472.55-35.60 473.35-35.79L473.35-35.79L473.35-35.79Q474.14-35.98 474.63-36.26L474.63-36.26L474.63-36.26Q474.80-34.62 475.86-33.03L475.86-33.03L475.86-33.03Q476.93-31.45 478.38-30.08L478.38-30.08L478.38-30.08Q479.83-28.71 481.33-27.70L481.33-27.70L481.33-27.70Q482.84-26.69 483.93-26.25L483.93-26.25L483.93-26.25Q483.22-25.16 482.81-22.94L482.81-22.94L482.81-22.94Q482.40-20.73 482.40-18.21L482.40-18.21L482.40-18.21Q482.40-15.91 482.73-13.81L482.73-13.81L482.73-13.81Q483.05-11.70 483.93-10.50L483.93-10.50L483.93-10.50Q481.96-9.95 480.07-9.02L480.07-9.02L480.07-9.02Q478.19-8.09 476.55-6.84L476.55-6.84L476.55-6.84Q474.91-5.58 473.57-4.02L473.57-4.02L473.57-4.02Q472.23-2.46 471.41-0.66L471.41-0.66L471.41-0.66Q469.22-1.42 465.28-1.97L465.28-1.97L465.28-1.97Q461.34-2.52 456.20-2.52L456.20-2.52L456.20-2.52Q453.91-2.52 452.27-2.35L452.27-2.35L452.27-2.35Q450.63-2.19 449.48-1.89L449.48-1.89L449.48-1.89Q448.33-1.59 447.56-1.15L447.56-1.15L447.56-1.15Q446.80-0.71 446.30-0.11L446.30-0.11L446.30-0.11Q445.48-0.60 444.25-0.96L444.25-0.96L444.25-0.96Q443.02-1.31 441.52-1.53L441.52-1.53L441.52-1.53Q440.02-1.75 438.40-1.86L438.40-1.86L438.40-1.86Q436.79-1.97 435.26-1.97L435.26-1.97L435.26-1.97Q432.47-1.97 430.17-1.86L430.17-1.86L430.17-1.86Q427.88-1.75 426.45-1.20Z" fill="#fff"></path></g></g><style>text {
  font-size: 64px;
  font-family: Arial Black;
  dominant-baseline: central;
  text-anchor: middle;
}</style></svg>
