<svg width="210" height="53" viewBox="0 0 210 53" fill="none" xmlns="http://www.w3.org/2000/svg">
<path d="M39.5625 47.625C39.75 47.5938 39.9375 47.5938 40.125 47.625C40.3438 47.6875 40.5625 47.75 40.7812 47.8125C41 47.875 41.2188 47.9375 41.4375 48C41.6875 48.0625 41.9219 48.0781 42.1406 48.0469C42.2656 48.0156 42.4688 47.9219 42.75 47.7656C43.0312 47.6094 43.3125 47.4062 43.5938 47.1562C43.9062 46.9375 44.1875 46.6875 44.4375 46.4062C44.6875 46.1562 44.8594 45.9375 44.9531 45.75C45.0469 45.5938 45.125 45.3281 45.1875 44.9531C45.25 44.6094 45.2812 44.3594 45.2812 44.2031C45.25 43.8594 45.0781 43.5 44.7656 43.125C44.4531 42.7812 44.1094 42.5938 43.7344 42.5625C43.3281 42.5312 42.9844 42.6406 42.7031 42.8906C42.4219 43.1719 42.1562 43.4219 41.9062 43.6406C41.8438 43.7031 41.7344 43.7969 41.5781 43.9219C41.4219 44.0781 41.25 44.2188 41.0625 44.3438C40.875 44.5 40.7031 44.6406 40.5469 44.7656C40.3906 44.8906 40.2656 44.9531 40.1719 44.9531C39.8594 45.0156 39.6094 44.9062 39.4219 44.625C39.2656 44.375 39.25 44.0156 39.375 43.5469C39.4375 43.3281 39.5781 43.0781 39.7969 42.7969C40.0156 42.5469 40.1875 42.3125 40.3125 42.0938C40.4688 41.7812 40.5938 41.5 40.6875 41.25C40.7812 41.0312 40.9375 40.8125 41.1562 40.5938C41.5 40.2188 41.9375 39.9219 42.4688 39.7031C43.0312 39.4844 43.5938 39.3438 44.1562 39.2812C44.75 39.2188 45.3125 39.2656 45.8438 39.4219C46.375 39.5781 46.8125 39.8438 47.1562 40.2188C47.25 40.3125 47.3281 40.4688 47.3906 40.6875C47.4844 40.9062 47.5625 41.1094 47.625 41.2969C47.8125 41.6719 48.0156 42.0469 48.2344 42.4219C48.4844 42.7969 48.6406 43.1719 48.7031 43.5469C48.7344 43.7031 48.7344 43.9062 48.7031 44.1562C48.7031 44.4375 48.7188 44.7031 48.75 44.9531C48.7812 45.7969 48.6719 46.4375 48.4219 46.875C48.2031 47.3438 47.875 47.8906 47.4375 48.5156C47.2188 48.8281 46.9844 49.1562 46.7344 49.5C46.5156 49.8438 46.2969 50.0938 46.0781 50.25C45.9219 50.375 45.7344 50.4531 45.5156 50.4844C45.2969 50.5156 45.1094 50.5781 44.9531 50.6719C44.7656 50.7969 44.5938 50.9531 44.4375 51.1406C44.3125 51.3281 44.1719 51.4844 44.0156 51.6094C43.6719 51.8281 43.1875 52.0156 42.5625 52.1719C41.9688 52.3281 41.4531 52.4375 41.0156 52.5C40.1094 52.625 39.1875 52.6562 38.25 52.5938C37.3438 52.5625 36.5938 52.4062 36 52.125C35.6875 51.9688 35.4219 51.7812 35.2031 51.5625C34.9844 51.3438 34.7031 51.2031 34.3594 51.1406C33.9219 51.0781 33.5469 51.0625 33.2344 51.0938C32.9219 51.125 32.625 51.0781 32.3438 50.9531C31.7188 50.6719 31.2188 50.2969 30.8438 49.8281C30.4688 49.3594 30.0625 48.8594 29.625 48.3281C29.5625 48.2344 29.5625 48.125 29.625 48C29.6875 47.9062 29.7656 47.8281 29.8594 47.7656C29.6406 47.4844 29.375 47.2812 29.0625 47.1562C28.7812 47.0312 28.5312 46.8438 28.3125 46.5938C27.9062 46.2188 27.6406 45.75 27.5156 45.1875C27.3906 44.625 27.2969 44.0156 27.2344 43.3594C26.8281 43.1719 26.4375 43.0469 26.0625 42.9844C25.7812 42.7656 25.5625 42.5 25.4062 42.1875C25.2812 41.9062 25.1406 41.625 24.9844 41.3438C24.8281 41.0938 24.6562 40.8438 24.4688 40.5938C24.2812 40.3438 24.125 40.0625 24 39.75C23.9062 39.4688 23.8281 39.1562 23.7656 38.8125C23.7031 38.4688 23.625 38.1094 23.5312 37.7344C23.3438 36.9844 23.1875 36.1875 23.0625 35.3438C22.9688 34.4688 22.8594 33.6094 22.7344 32.7656C22.6719 32.3594 22.625 31.9688 22.5938 31.5938C22.5938 31.1875 22.5938 30.8125 22.5938 30.4688C22.6562 29.6875 22.75 28.9062 22.875 28.125C23 27.3125 22.9844 26.5312 22.8281 25.7812C22.7969 25.625 22.7344 25.4375 22.6406 25.2188C22.5469 25 22.4375 24.7812 22.3125 24.5625C22.1875 24.3438 22.0469 24.1562 21.8906 24C21.7656 23.8125 21.6406 23.7031 21.5156 23.6719C21.1406 23.5469 20.7031 23.5625 20.2031 23.7188C19.7344 23.8438 19.3281 23.9844 18.9844 24.1406C18.7656 24.2031 18.4375 24.3281 18 24.5156C17.5938 24.7031 17.3281 24.875 17.2031 25.0312C17.0469 25.25 16.9688 25.5 16.9688 25.7812C17 26.0625 16.9531 26.3594 16.8281 26.6719C16.7656 26.8906 16.6562 27.0781 16.5 27.2344C16.3438 27.3906 16.2344 27.5469 16.1719 27.7031C16.1094 27.8594 16.0938 28.0156 16.125 28.1719C16.1875 28.3281 16.2031 28.4844 16.1719 28.6406C16.1719 28.8281 16.125 29.0312 16.0312 29.25C15.9688 29.4375 15.9062 29.6562 15.8438 29.9062C15.75 30.3438 15.6875 30.8125 15.6562 31.3125C15.625 31.7812 15.5781 32.2344 15.5156 32.6719C15.4219 33.1719 15.3125 33.6562 15.1875 34.125C15.0938 34.5938 15.0781 35.0938 15.1406 35.625C15.2031 36 15.3438 36.4219 15.5625 36.8906C15.8125 37.3594 15.9062 37.6875 15.8438 37.875C15.7188 38.25 15.3594 38.4688 14.7656 38.5312C14.1719 38.5625 13.6094 38.5625 13.0781 38.5312C12.5156 38.4688 11.9375 38.4062 11.3438 38.3438C10.7812 38.2812 10.25 38.2656 9.75 38.2969C9 38.3281 8.25 38.4531 7.5 38.6719C6.75 38.8594 6.01562 39.0312 5.29688 39.1875C4.60938 39.3438 3.89062 39.5156 3.14062 39.7031C2.39062 39.9219 1.67188 39.8906 0.984375 39.6094C0.921875 39.3281 0.953125 39.0312 1.07812 38.7188C1.20313 38.4062 1.46875 38.2812 1.875 38.3438C2.25 38 2.60938 37.6719 2.95312 37.3594C3.29688 37.0156 3.625 36.6406 3.9375 36.2344C4.0625 35.7344 4.29688 35.25 4.64062 34.7812C4.95312 34.3125 5.20312 33.7969 5.39062 33.2344C5.48438 32.9531 5.53125 32.6719 5.53125 32.3906C5.5625 32.0781 5.65625 31.7969 5.8125 31.5469C5.9375 31.3281 6.125 31.1719 6.375 31.0781C6.625 30.9844 6.8125 30.8438 6.9375 30.6562C6.96875 30.3125 6.89062 30.0938 6.70312 30C6.54688 29.875 6.46875 29.7031 6.46875 29.4844C6.4375 29.3281 6.5 29.0469 6.65625 28.6406C6.8125 28.2344 6.95312 27.8125 7.07812 27.375C7.29688 26.5625 7.48438 25.8125 7.64062 25.125C7.79688 24.4375 7.9375 23.6875 8.0625 22.875C8.09375 22.6562 8.09375 22.4219 8.0625 22.1719C8.0625 21.9219 8.09375 21.7188 8.15625 21.5625C8.25 21.25 8.4375 20.9531 8.71875 20.6719C9 20.3906 9.1875 20.0781 9.28125 19.7344C9.34375 19.4844 9.34375 19.2188 9.28125 18.9375C9.21875 18.6562 9.21875 18.375 9.28125 18.0938C9.34375 17.8438 9.42188 17.6406 9.51562 17.4844C9.64062 17.3281 9.76562 17.1406 9.89062 16.9219C10.2969 15.7344 10.6562 14.4688 10.9688 13.125C11.3125 11.75 11.3125 10.4688 10.9688 9.28125C10.8125 8.625 10.6094 8 10.3594 7.40625C10.1406 6.8125 9.82812 6.40625 9.42188 6.1875C9.17188 6.0625 8.89062 6 8.57812 6C8.29688 6 8.15625 5.85938 8.15625 5.57812C8.15625 5.35938 8.29688 5.1875 8.57812 5.0625C8.85938 4.9375 9.1875 4.84375 9.5625 4.78125C9.96875 4.6875 10.3594 4.625 10.7344 4.59375C11.1406 4.5625 11.4531 4.54688 11.6719 4.54688C12.1094 4.51563 12.5781 4.625 13.0781 4.875C13.6094 5.125 14.1094 5.25 14.5781 5.25C15.0156 5.25 15.4688 5.26563 15.9375 5.29688C16.4062 5.29688 16.8594 5.3125 17.2969 5.34375C17.7969 5.375 18.2656 5.35938 18.7031 5.29688C19.1719 5.23437 19.6562 5.20312 20.1562 5.20312C20.9688 5.17188 21.7656 5.07813 22.5469 4.92188C23.3594 4.73438 24.125 4.71875 24.8438 4.875C25.0938 5.09375 25.1562 5.32812 25.0312 5.57812C24.9375 5.79687 24.7656 6.03125 24.5156 6.28125C24.2656 6.53125 24 6.78125 23.7188 7.03125C23.4375 7.28125 23.2344 7.53125 23.1094 7.78125C22.9844 8.21875 22.8594 8.65625 22.7344 9.09375C22.6094 9.5 22.4219 9.89062 22.1719 10.2656C22.1094 10.3594 22 10.4375 21.8438 10.5C21.7188 10.5625 21.6094 10.6562 21.5156 10.7812C21.0781 11.4375 20.7031 12.1562 20.3906 12.9375C20.0781 13.7188 19.7188 14.5312 19.3125 15.375C19.1875 15.4688 19.0469 15.6406 18.8906 15.8906C18.7344 16.1406 18.5938 16.3438 18.4688 16.5C18.5625 16.6875 18.5781 16.9062 18.5156 17.1562C18.4844 17.4062 18.4375 17.6562 18.375 17.9062C18.3125 18.1562 18.2656 18.3906 18.2344 18.6094C18.2031 18.8281 18.2344 19 18.3281 19.125C18.3906 19.2188 18.5781 19.3125 18.8906 19.4062C19.2031 19.4688 19.4844 19.4688 19.7344 19.4062C20.2031 19.2812 20.625 19.0469 21 18.7031C21.375 18.3281 21.75 17.9688 22.125 17.625C22.5 17.3125 22.8906 17.0469 23.2969 16.8281C23.7344 16.6094 24.1719 16.4062 24.6094 16.2188C25.0781 16 25.5469 15.7812 26.0156 15.5625C26.4844 15.3125 26.9531 15.0156 27.4219 14.6719C28.1406 14.1406 28.7969 13.5938 29.3906 13.0312C29.9844 12.4375 30.625 11.8594 31.3125 11.2969C31.6562 11.0469 31.9531 10.8125 32.2031 10.5938C32.4531 10.375 32.75 10.2031 33.0938 10.0781C33.3125 10.0156 33.5312 10.0156 33.75 10.0781C33.9688 10.1094 34.1562 10.0938 34.3125 10.0312C34.5625 9.90625 34.7812 9.67188 34.9688 9.32812C35.1562 8.98438 35.3906 8.70312 35.6719 8.48438C35.8281 8.35938 35.9688 8.28125 36.0938 8.25C36.25 8.1875 36.4219 8.07812 36.6094 7.92188C36.8594 7.76562 37.0938 7.59375 37.3125 7.40625C37.5625 7.21875 37.8438 7.03125 38.1562 6.84375C38.4062 6.6875 38.6719 6.53125 38.9531 6.375C39.2344 6.21875 39.5 6.03125 39.75 5.8125C40.2812 5.4375 40.8125 5.04687 41.3438 4.64062C41.875 4.23438 42.3594 3.89062 42.7969 3.60938C42.9531 3.51562 43.0938 3.45312 43.2188 3.42188C43.375 3.39063 43.5156 3.34375 43.6406 3.28125C43.9531 3.125 44.2344 2.92188 44.4844 2.67188C44.7656 2.42187 45.0469 2.17188 45.3281 1.92188C45.6094 1.67187 45.9062 1.45312 46.2188 1.26562C46.5312 1.04688 46.875 0.921875 47.25 0.890625C47.5938 0.859375 47.8594 0.90625 48.0469 1.03125C48.2656 1.15625 48.5 1.23438 48.75 1.26562C49.1875 1.82812 49.2656 2.70312 48.9844 3.89062C48.9219 4.14063 48.875 4.40625 48.8438 4.6875C48.8125 4.9375 48.7656 5.14062 48.7031 5.29688C48.6094 5.51562 48.4375 5.78125 48.1875 6.09375C47.9688 6.40625 47.6875 6.65625 47.3438 6.84375C47.0938 7 46.7969 7.17188 46.4531 7.35938C46.1406 7.54688 45.8594 7.67188 45.6094 7.73438C45.4219 7.79688 45.25 7.8125 45.0938 7.78125C44.9688 7.71875 44.8281 7.70312 44.6719 7.73438C44.2969 7.85938 44 8.09375 43.7812 8.4375C43.5938 8.75 43.4375 9.0625 43.3125 9.375C42.7812 9.8125 42.2188 10.1719 41.625 10.4531C41.0312 10.7031 40.4531 11 39.8906 11.3438C39.2656 11.6875 38.6562 12 38.0625 12.2812C37.4688 12.5625 36.875 12.8594 36.2812 13.1719C35.5312 13.5469 34.8281 14.0312 34.1719 14.625C33.5156 15.2188 32.8281 15.75 32.1094 16.2188C31.3594 16.6562 30.625 17.1406 29.9062 17.6719C29.2188 18.1719 28.5938 18.7188 28.0312 19.3125C27.8438 19.375 27.5469 19.5 27.1406 19.6875C26.7344 19.875 26.5 20.0938 26.4375 20.3438C26.4062 20.4688 26.4375 20.6094 26.5312 20.7656C26.6562 20.9219 26.7969 21.0938 26.9531 21.2812C27.1094 21.4375 27.25 21.5781 27.375 21.7031C27.5312 21.7969 27.625 21.8594 27.6562 21.8906C27.8125 22.0156 27.9531 22.1094 28.0781 22.1719C28.2344 22.2031 28.375 22.2656 28.5 22.3594C28.875 22.6719 29.2031 23.0156 29.4844 23.3906C29.7969 23.7344 30.0312 24.125 30.1875 24.5625C30.3438 24.9688 30.4844 25.4375 30.6094 25.9688C30.7656 26.5 30.9219 27.0312 31.0781 27.5625C31.2656 28.1875 31.4531 28.7812 31.6406 29.3438C31.8594 29.9062 32.0312 30.5625 32.1562 31.3125C32.3125 32.375 32.4375 33.4531 32.5312 34.5469C32.625 35.6406 32.8281 36.6719 33.1406 37.6406C33.2031 37.7969 33.2344 37.9688 33.2344 38.1562C33.2656 38.3125 33.3125 38.4688 33.375 38.625C33.4375 38.7812 33.5 38.9219 33.5625 39.0469C33.625 39.2031 33.6719 39.3594 33.7031 39.5156C33.7344 39.7344 33.7188 39.9688 33.6562 40.2188C33.625 40.5 33.6406 40.7188 33.7031 40.875C33.7656 41.0312 33.8906 41.2812 34.0781 41.625C34.2969 41.9688 34.4688 42.2188 34.5938 42.375C34.75 42.625 34.9219 42.875 35.1094 43.125C35.3281 43.4062 35.5312 43.6875 35.7188 43.9688C35.9375 44.25 36.125 44.5312 36.2812 44.8125C36.4688 45.0938 36.6562 45.3438 36.8438 45.5625C37.2188 46 37.6719 46.375 38.2031 46.6875C38.7344 47 39.1875 47.3125 39.5625 47.625ZM48.7969 37.8281C48.1719 37.8281 47.7031 37.9688 47.3906 38.25C47.1094 38.5 46.9062 38.8281 46.7812 39.2344C46.4062 39.1406 45.9688 39.125 45.4688 39.1875C45 39.25 44.5156 39.3125 44.0156 39.375C43.5469 39.4375 43.0781 39.4688 42.6094 39.4688C42.1719 39.5 41.7969 39.4219 41.4844 39.2344C41.3281 39.1406 41.2031 39.0156 41.1094 38.8594C41.0156 38.6719 40.9062 38.5 40.7812 38.3438C40.6562 38.1562 40.5312 37.9844 40.4062 37.8281C40.25 37.6719 40.1562 37.5156 40.125 37.3594C40.0625 37.1719 40.1094 36.9062 40.2656 36.5625C40.4219 36.1875 40.5625 35.9219 40.6875 35.7656C40.8125 35.6719 40.9531 35.5938 41.1094 35.5312C41.2969 35.4688 41.4688 35.375 41.625 35.25C42.0625 34.9062 42.375 34.4844 42.5625 33.9844C42.7812 33.4531 42.9688 33.0312 43.125 32.7188C43.3438 32.5625 43.5938 32.4062 43.875 32.25C44.1875 32.0625 44.3125 31.8281 44.25 31.5469C43.9688 31.3906 43.6406 31.3281 43.2656 31.3594C42.8906 31.3594 42.5156 31.3438 42.1406 31.3125C41.5156 31.3125 40.8906 31.2656 40.2656 31.1719C39.6406 31.0781 39.0781 31 38.5781 30.9375C37.7656 30.7812 37.0625 30.4062 36.4688 29.8125C35.8438 29.2188 35.5781 28.4688 35.6719 27.5625C35.8906 27.4688 36.1406 27.4219 36.4219 27.4219C36.6719 27.4219 36.9531 27.4375 37.2656 27.4688C37.5469 27.5 37.8438 27.5312 38.1562 27.5625C38.4375 27.5625 38.7031 27.5156 38.9531 27.4219C39.2344 27.6094 39.5 27.7031 39.75 27.7031C39.9688 27.7031 40.1875 27.6562 40.4062 27.5625C40.5938 27.4688 40.7812 27.375 40.9688 27.2812C41.1562 27.1562 41.3281 27.0781 41.4844 27.0469C41.6406 27.0156 41.7812 27.0156 41.9062 27.0469C42.0312 27.0781 42.1719 27.0938 42.3281 27.0938C42.5781 27.0938 42.8281 27.0625 43.0781 27C43.3281 26.9062 43.625 26.8281 43.9688 26.7656C44.4375 26.7031 44.9219 26.6719 45.4219 26.6719C45.9219 26.6406 46.3438 26.5469 46.6875 26.3906C46.9062 26.2969 47.1562 26.1406 47.4375 25.9219C47.7188 25.6719 47.9219 25.4531 48.0469 25.2656C48.1094 25.1094 48.125 24.9688 48.0938 24.8438C48.0938 24.6875 48.125 24.5312 48.1875 24.375C48.3438 23.8438 48.6094 23.375 48.9844 22.9688C49.3906 22.5625 49.7188 22.1094 49.9688 21.6094C50.0625 21.3594 50.125 21.1719 50.1562 21.0469C50.2188 20.9219 50.2656 20.8125 50.2969 20.7188C50.3281 20.625 50.3594 20.5156 50.3906 20.3906C50.4531 20.2656 50.5625 20.0781 50.7188 19.8281C51 19.3906 51.2812 18.9688 51.5625 18.5625C51.875 18.1562 52.2344 17.7656 52.6406 17.3906C52.6406 17.2031 52.6719 17.0469 52.7344 16.9219C52.7969 16.7656 52.8594 16.6094 52.9219 16.4531C53.7656 16.1094 54.4531 15.6562 54.9844 15.0938C55.5156 14.5312 56.0469 13.9375 56.5781 13.3125C56.5469 13 56.6094 12.7812 56.7656 12.6562C56.9219 12.5 57 12.2656 57 11.9531C57 11.7969 56.9375 11.625 56.8125 11.4375C56.7188 11.2188 56.6719 11 56.6719 10.7812C56.6719 10.5312 56.7656 10.2812 56.9531 10.0312C57.1719 9.75 57.3594 9.5 57.5156 9.28125C57.7656 9.03125 57.9531 8.78125 58.0781 8.53125C58.2344 8.28125 58.3906 8.04688 58.5469 7.82812C58.7969 7.54688 59.0469 7.29688 59.2969 7.07812C59.5781 6.85938 59.8438 6.59375 60.0938 6.28125C60.2188 6.09375 60.3125 5.89062 60.375 5.67188C60.4688 5.42187 60.6094 5.23437 60.7969 5.10938C61.0781 4.92188 61.4688 4.8125 61.9688 4.78125C62.4688 4.75 62.9688 4.71875 63.4688 4.6875C64.0625 4.65625 64.7031 4.59375 65.3906 4.5C66.1094 4.375 66.8125 4.25 67.5 4.125C68.2188 4 68.9062 3.89062 69.5625 3.79688C70.25 3.67188 70.875 3.59375 71.4375 3.5625C72 3.5 72.5312 3.48438 73.0312 3.51562C73.5625 3.54687 73.9844 3.5 74.2969 3.375C74.7344 3.75 75.1719 4.125 75.6094 4.5C76.0781 4.84375 76.5156 5.21875 76.9219 5.625C77.0469 6.25 77.1562 6.82812 77.25 7.35938C77.3438 7.89062 77.3594 8.42188 77.2969 8.95312C77.2344 9.20312 77.125 9.4375 76.9688 9.65625C76.8438 9.875 76.7969 10.125 76.8281 10.4062C76.8281 10.875 76.9688 11.3438 77.25 11.8125C77.5312 12.25 77.7344 12.7344 77.8594 13.2656C77.8906 13.5156 77.8438 13.7656 77.7188 14.0156C77.625 14.2344 77.5625 14.4688 77.5312 14.7188C77.5 14.9688 77.5156 15.25 77.5781 15.5625C77.6406 15.8438 77.7031 16.1406 77.7656 16.4531C77.7656 16.8281 77.75 17.2031 77.7188 17.5781C77.6875 17.9531 77.7031 18.3438 77.7656 18.75C77.8281 19.1562 77.9062 19.5781 78 20.0156C78.0938 20.4219 78.125 20.8438 78.0938 21.2812C78.0312 21.7188 77.9375 22.125 77.8125 22.5C77.7188 22.875 77.6719 23.2656 77.6719 23.6719C77.6406 24.2344 77.6719 24.7812 77.7656 25.3125C77.8594 25.8125 77.8281 26.3281 77.6719 26.8594C77.9219 27.1719 78.0469 27.4844 78.0469 27.7969C78.0781 28.1094 78.0625 28.4219 78 28.7344C77.9375 29.0469 77.875 29.375 77.8125 29.7188C77.75 30.0312 77.7812 30.3594 77.9062 30.7031C77.9688 30.9219 78.0938 31.125 78.2812 31.3125C78.4688 31.4688 78.5938 31.6719 78.6562 31.9219C78.75 32.2344 78.7969 32.625 78.7969 33.0938C78.8281 33.5312 78.8438 33.9531 78.8438 34.3594C78.875 35.3594 78.7812 36.25 78.5625 37.0312C78.375 37.8125 78.2656 38.6562 78.2344 39.5625C78.2344 39.9688 78.2188 40.4219 78.1875 40.9219C78.1875 41.4219 78.1094 41.8125 77.9531 42.0938C77.7969 42.2812 77.5469 42.4688 77.2031 42.6562C76.8594 42.875 76.5625 43 76.3125 43.0312C75.8438 43.0625 75.2969 42.9375 74.6719 42.6562C74.0781 42.375 73.625 42.0781 73.3125 41.7656C73.0312 41.4531 72.7656 41.1094 72.5156 40.7344C72.2969 40.3594 72.0625 39.9688 71.8125 39.5625C71.5938 39.1562 71.3594 38.7812 71.1094 38.4375C70.8594 38.0625 70.5781 37.75 70.2656 37.5C70.1094 37.4062 69.9375 37.3125 69.75 37.2188C69.5625 37.125 69.4219 37.0156 69.3281 36.8906C69.1406 36.5781 69.0312 36.2344 69 35.8594C69 35.4531 69.0156 35.0469 69.0469 34.6406C69.1094 34.2031 69.1562 33.7812 69.1875 33.375C69.25 32.9688 69.2344 32.6094 69.1406 32.2969C69.0469 31.9844 68.9219 31.75 68.7656 31.5938C68.6094 31.4062 68.4062 31.2812 68.1562 31.2188C67.9375 31.125 67.6719 31.0781 67.3594 31.0781C67.0781 31.0469 66.7344 31.0156 66.3281 30.9844C64.8594 30.8906 63.3438 30.7969 61.7812 30.7031C60.2188 30.6094 58.625 30.5781 57 30.6094C56.6562 30.6094 56.4062 30.625 56.25 30.6562C56.0938 30.6875 55.9531 30.7188 55.8281 30.75C55.7031 30.75 55.5781 30.7656 55.4531 30.7969C55.3281 30.8281 55.125 30.8438 54.8438 30.8438C54.2188 30.875 53.6562 30.9219 53.1562 30.9844C52.6562 31.0156 52.2188 31.1719 51.8438 31.4531C51.625 31.6094 51.3906 31.9219 51.1406 32.3906C50.8906 32.8594 50.7031 33.2188 50.5781 33.4688C50.4219 33.8438 50.2812 34.2344 50.1562 34.6406C50.0625 35.0469 49.9531 35.4531 49.8281 35.8594C49.7344 36.2344 49.6094 36.5938 49.4531 36.9375C49.2969 37.2812 49.0781 37.5781 48.7969 37.8281ZM60.7031 25.4531C61.7656 25.4219 62.7812 25.4062 63.75 25.4062C64.75 25.375 65.6875 25.3281 66.5625 25.2656C66.6875 25.2031 66.7969 25.1562 66.8906 25.125C67.0156 25.0938 67.2031 25.1094 67.4531 25.1719C67.4531 25.0156 67.5312 24.9375 67.6875 24.9375C67.8438 24.9062 67.9688 24.8594 68.0625 24.7969C68.1875 24.5781 68.25 24.4062 68.25 24.2812C68.25 24.125 68.2188 24 68.1562 23.9062C68.125 23.7812 68.0625 23.6562 67.9688 23.5312C67.9062 23.375 67.875 23.1719 67.875 22.9219C67.875 22.6719 67.9062 22.4219 67.9688 22.1719C68.0625 21.8906 68.125 21.6094 68.1562 21.3281C68.1875 21.1094 68.1562 20.875 68.0625 20.625C68 20.375 67.9844 20.125 68.0156 19.875C68.0469 19.6562 68.1406 19.4688 68.2969 19.3125C68.4531 19.125 68.5312 18.9219 68.5312 18.7031C68.5312 18.5781 68.5 18.4375 68.4375 18.2812C68.4062 18.125 68.375 17.9688 68.3438 17.8125C68.3125 17.5938 68.2969 17.375 68.2969 17.1562C68.3281 16.9375 68.3125 16.75 68.25 16.5938C68.1875 16.3438 68.0312 16.1094 67.7812 15.8906C67.5312 15.6719 67.375 15.4375 67.3125 15.1875C67.2188 14.875 67.2031 14.5312 67.2656 14.1562C67.3594 13.75 67.4062 13.3594 67.4062 12.9844C67.375 12.4531 67.3281 11.9688 67.2656 11.5312C67.2031 11.0938 67.0469 10.6562 66.7969 10.2188C66.4531 10.0312 66.1875 9.96875 66 10.0312C65.8438 10.0625 65.7031 10.1719 65.5781 10.3594C65.4844 10.5156 65.3906 10.7031 65.2969 10.9219C65.2344 11.1406 65.1094 11.3281 64.9219 11.4844C64.0781 12.2344 63.4219 13 62.9531 13.7812C62.4844 14.5312 61.9062 15.3594 61.2188 16.2656C60.9375 16.6094 60.6406 16.9531 60.3281 17.2969C60.0469 17.6406 59.7812 18.0156 59.5312 18.4219C59.3125 18.8281 59.1406 19.25 59.0156 19.6875C58.8906 20.125 58.8594 20.6094 58.9219 21.1406C58.7656 21.3906 58.625 21.5781 58.5 21.7031C58.4062 21.7969 58.2969 21.8906 58.1719 21.9844C58.0469 22.0781 57.9062 22.1875 57.75 22.3125C57.625 22.4375 57.4688 22.6094 57.2812 22.8281C56.9375 23.2656 56.5625 23.7188 56.1562 24.1875C55.75 24.625 55.4844 25.1094 55.3594 25.6406C55.9219 25.7969 56.4062 25.875 56.8125 25.875C57.2188 25.875 57.6094 25.8594 57.9844 25.8281C58.3906 25.7656 58.7969 25.7031 59.2031 25.6406C59.6406 25.5469 60.1406 25.4844 60.7031 25.4531ZM117.469 47.625C117.656 47.5938 117.844 47.5938 118.031 47.625C118.25 47.6875 118.469 47.75 118.688 47.8125C118.906 47.875 119.125 47.9375 119.344 48C119.594 48.0625 119.828 48.0781 120.047 48.0469C120.172 48.0156 120.375 47.9219 120.656 47.7656C120.938 47.6094 121.219 47.4062 121.5 47.1562C121.812 46.9375 122.094 46.6875 122.344 46.4062C122.594 46.1562 122.766 45.9375 122.859 45.75C122.953 45.5938 123.031 45.3281 123.094 44.9531C123.156 44.6094 123.188 44.3594 123.188 44.2031C123.156 43.8594 122.984 43.5 122.672 43.125C122.359 42.7812 122.016 42.5938 121.641 42.5625C121.234 42.5312 120.891 42.6406 120.609 42.8906C120.328 43.1719 120.062 43.4219 119.812 43.6406C119.75 43.7031 119.641 43.7969 119.484 43.9219C119.328 44.0781 119.156 44.2188 118.969 44.3438C118.781 44.5 118.609 44.6406 118.453 44.7656C118.297 44.8906 118.172 44.9531 118.078 44.9531C117.766 45.0156 117.516 44.9062 117.328 44.625C117.172 44.375 117.156 44.0156 117.281 43.5469C117.344 43.3281 117.484 43.0781 117.703 42.7969C117.922 42.5469 118.094 42.3125 118.219 42.0938C118.375 41.7812 118.5 41.5 118.594 41.25C118.688 41.0312 118.844 40.8125 119.062 40.5938C119.406 40.2188 119.844 39.9219 120.375 39.7031C120.938 39.4844 121.5 39.3438 122.062 39.2812C122.656 39.2188 123.219 39.2656 123.75 39.4219C124.281 39.5781 124.719 39.8438 125.062 40.2188C125.156 40.3125 125.234 40.4688 125.297 40.6875C125.391 40.9062 125.469 41.1094 125.531 41.2969C125.719 41.6719 125.922 42.0469 126.141 42.4219C126.391 42.7969 126.547 43.1719 126.609 43.5469C126.641 43.7031 126.641 43.9062 126.609 44.1562C126.609 44.4375 126.625 44.7031 126.656 44.9531C126.688 45.7969 126.578 46.4375 126.328 46.875C126.109 47.3438 125.781 47.8906 125.344 48.5156C125.125 48.8281 124.891 49.1562 124.641 49.5C124.422 49.8438 124.203 50.0938 123.984 50.25C123.828 50.375 123.641 50.4531 123.422 50.4844C123.203 50.5156 123.016 50.5781 122.859 50.6719C122.672 50.7969 122.5 50.9531 122.344 51.1406C122.219 51.3281 122.078 51.4844 121.922 51.6094C121.578 51.8281 121.094 52.0156 120.469 52.1719C119.875 52.3281 119.359 52.4375 118.922 52.5C118.016 52.625 117.094 52.6562 116.156 52.5938C115.25 52.5625 114.5 52.4062 113.906 52.125C113.594 51.9688 113.328 51.7812 113.109 51.5625C112.891 51.3438 112.609 51.2031 112.266 51.1406C111.828 51.0781 111.453 51.0625 111.141 51.0938C110.828 51.125 110.531 51.0781 110.25 50.9531C109.625 50.6719 109.125 50.2969 108.75 49.8281C108.375 49.3594 107.969 48.8594 107.531 48.3281C107.469 48.2344 107.469 48.125 107.531 48C107.594 47.9062 107.672 47.8281 107.766 47.7656C107.547 47.4844 107.281 47.2812 106.969 47.1562C106.688 47.0312 106.438 46.8438 106.219 46.5938C105.812 46.2188 105.547 45.75 105.422 45.1875C105.297 44.625 105.203 44.0156 105.141 43.3594C104.734 43.1719 104.344 43.0469 103.969 42.9844C103.688 42.7656 103.469 42.5 103.312 42.1875C103.188 41.9062 103.047 41.625 102.891 41.3438C102.734 41.0938 102.562 40.8438 102.375 40.5938C102.188 40.3438 102.031 40.0625 101.906 39.75C101.812 39.4688 101.734 39.1562 101.672 38.8125C101.609 38.4688 101.531 38.1094 101.438 37.7344C101.25 36.9844 101.094 36.1875 100.969 35.3438C100.875 34.4688 100.766 33.6094 100.641 32.7656C100.578 32.3594 100.531 31.9688 100.5 31.5938C100.5 31.1875 100.5 30.8125 100.5 30.4688C100.562 29.6875 100.656 28.9062 100.781 28.125C100.906 27.3125 100.891 26.5312 100.734 25.7812C100.703 25.625 100.641 25.4375 100.547 25.2188C100.453 25 100.344 24.7812 100.219 24.5625C100.094 24.3438 99.9531 24.1562 99.7969 24C99.6719 23.8125 99.5469 23.7031 99.4219 23.6719C99.0469 23.5469 98.6094 23.5625 98.1094 23.7188C97.6406 23.8438 97.2344 23.9844 96.8906 24.1406C96.6719 24.2031 96.3438 24.3281 95.9062 24.5156C95.5 24.7031 95.2344 24.875 95.1094 25.0312C94.9531 25.25 94.875 25.5 94.875 25.7812C94.9062 26.0625 94.8594 26.3594 94.7344 26.6719C94.6719 26.8906 94.5625 27.0781 94.4062 27.2344C94.25 27.3906 94.1406 27.5469 94.0781 27.7031C94.0156 27.8594 94 28.0156 94.0312 28.1719C94.0938 28.3281 94.1094 28.4844 94.0781 28.6406C94.0781 28.8281 94.0312 29.0312 93.9375 29.25C93.875 29.4375 93.8125 29.6562 93.75 29.9062C93.6562 30.3438 93.5938 30.8125 93.5625 31.3125C93.5312 31.7812 93.4844 32.2344 93.4219 32.6719C93.3281 33.1719 93.2188 33.6562 93.0938 34.125C93 34.5938 92.9844 35.0938 93.0469 35.625C93.1094 36 93.25 36.4219 93.4688 36.8906C93.7188 37.3594 93.8125 37.6875 93.75 37.875C93.625 38.25 93.2656 38.4688 92.6719 38.5312C92.0781 38.5625 91.5156 38.5625 90.9844 38.5312C90.4219 38.4688 89.8438 38.4062 89.25 38.3438C88.6875 38.2812 88.1562 38.2656 87.6562 38.2969C86.9062 38.3281 86.1562 38.4531 85.4062 38.6719C84.6562 38.8594 83.9219 39.0312 83.2031 39.1875C82.5156 39.3438 81.7969 39.5156 81.0469 39.7031C80.2969 39.9219 79.5781 39.8906 78.8906 39.6094C78.8281 39.3281 78.8594 39.0312 78.9844 38.7188C79.1094 38.4062 79.375 38.2812 79.7812 38.3438C80.1562 38 80.5156 37.6719 80.8594 37.3594C81.2031 37.0156 81.5312 36.6406 81.8438 36.2344C81.9688 35.7344 82.2031 35.25 82.5469 34.7812C82.8594 34.3125 83.1094 33.7969 83.2969 33.2344C83.3906 32.9531 83.4375 32.6719 83.4375 32.3906C83.4688 32.0781 83.5625 31.7969 83.7188 31.5469C83.8438 31.3281 84.0312 31.1719 84.2812 31.0781C84.5312 30.9844 84.7188 30.8438 84.8438 30.6562C84.875 30.3125 84.7969 30.0938 84.6094 30C84.4531 29.875 84.375 29.7031 84.375 29.4844C84.3438 29.3281 84.4062 29.0469 84.5625 28.6406C84.7188 28.2344 84.8594 27.8125 84.9844 27.375C85.2031 26.5625 85.3906 25.8125 85.5469 25.125C85.7031 24.4375 85.8438 23.6875 85.9688 22.875C86 22.6562 86 22.4219 85.9688 22.1719C85.9688 21.9219 86 21.7188 86.0625 21.5625C86.1562 21.25 86.3438 20.9531 86.625 20.6719C86.9062 20.3906 87.0938 20.0781 87.1875 19.7344C87.25 19.4844 87.25 19.2188 87.1875 18.9375C87.125 18.6562 87.125 18.375 87.1875 18.0938C87.25 17.8438 87.3281 17.6406 87.4219 17.4844C87.5469 17.3281 87.6719 17.1406 87.7969 16.9219C88.2031 15.7344 88.5625 14.4688 88.875 13.125C89.2188 11.75 89.2188 10.4688 88.875 9.28125C88.7188 8.625 88.5156 8 88.2656 7.40625C88.0469 6.8125 87.7344 6.40625 87.3281 6.1875C87.0781 6.0625 86.7969 6 86.4844 6C86.2031 6 86.0625 5.85938 86.0625 5.57812C86.0625 5.35938 86.2031 5.1875 86.4844 5.0625C86.7656 4.9375 87.0938 4.84375 87.4688 4.78125C87.875 4.6875 88.2656 4.625 88.6406 4.59375C89.0469 4.5625 89.3594 4.54688 89.5781 4.54688C90.0156 4.51563 90.4844 4.625 90.9844 4.875C91.5156 5.125 92.0156 5.25 92.4844 5.25C92.9219 5.25 93.375 5.26563 93.8438 5.29688C94.3125 5.29688 94.7656 5.3125 95.2031 5.34375C95.7031 5.375 96.1719 5.35938 96.6094 5.29688C97.0781 5.23437 97.5625 5.20312 98.0625 5.20312C98.875 5.17188 99.6719 5.07813 100.453 4.92188C101.266 4.73438 102.031 4.71875 102.75 4.875C103 5.09375 103.062 5.32812 102.938 5.57812C102.844 5.79687 102.672 6.03125 102.422 6.28125C102.172 6.53125 101.906 6.78125 101.625 7.03125C101.344 7.28125 101.141 7.53125 101.016 7.78125C100.891 8.21875 100.766 8.65625 100.641 9.09375C100.516 9.5 100.328 9.89062 100.078 10.2656C100.016 10.3594 99.9062 10.4375 99.75 10.5C99.625 10.5625 99.5156 10.6562 99.4219 10.7812C98.9844 11.4375 98.6094 12.1562 98.2969 12.9375C97.9844 13.7188 97.625 14.5312 97.2188 15.375C97.0938 15.4688 96.9531 15.6406 96.7969 15.8906C96.6406 16.1406 96.5 16.3438 96.375 16.5C96.4688 16.6875 96.4844 16.9062 96.4219 17.1562C96.3906 17.4062 96.3438 17.6562 96.2812 17.9062C96.2188 18.1562 96.1719 18.3906 96.1406 18.6094C96.1094 18.8281 96.1406 19 96.2344 19.125C96.2969 19.2188 96.4844 19.3125 96.7969 19.4062C97.1094 19.4688 97.3906 19.4688 97.6406 19.4062C98.1094 19.2812 98.5312 19.0469 98.9062 18.7031C99.2812 18.3281 99.6562 17.9688 100.031 17.625C100.406 17.3125 100.797 17.0469 101.203 16.8281C101.641 16.6094 102.078 16.4062 102.516 16.2188C102.984 16 103.453 15.7812 103.922 15.5625C104.391 15.3125 104.859 15.0156 105.328 14.6719C106.047 14.1406 106.703 13.5938 107.297 13.0312C107.891 12.4375 108.531 11.8594 109.219 11.2969C109.562 11.0469 109.859 10.8125 110.109 10.5938C110.359 10.375 110.656 10.2031 111 10.0781C111.219 10.0156 111.438 10.0156 111.656 10.0781C111.875 10.1094 112.062 10.0938 112.219 10.0312C112.469 9.90625 112.688 9.67188 112.875 9.32812C113.062 8.98438 113.297 8.70312 113.578 8.48438C113.734 8.35938 113.875 8.28125 114 8.25C114.156 8.1875 114.328 8.07812 114.516 7.92188C114.766 7.76562 115 7.59375 115.219 7.40625C115.469 7.21875 115.75 7.03125 116.062 6.84375C116.312 6.6875 116.578 6.53125 116.859 6.375C117.141 6.21875 117.406 6.03125 117.656 5.8125C118.188 5.4375 118.719 5.04687 119.25 4.64062C119.781 4.23438 120.266 3.89062 120.703 3.60938C120.859 3.51562 121 3.45312 121.125 3.42188C121.281 3.39063 121.422 3.34375 121.547 3.28125C121.859 3.125 122.141 2.92188 122.391 2.67188C122.672 2.42187 122.953 2.17188 123.234 1.92188C123.516 1.67187 123.812 1.45312 124.125 1.26562C124.438 1.04688 124.781 0.921875 125.156 0.890625C125.5 0.859375 125.766 0.90625 125.953 1.03125C126.172 1.15625 126.406 1.23438 126.656 1.26562C127.094 1.82812 127.172 2.70312 126.891 3.89062C126.828 4.14063 126.781 4.40625 126.75 4.6875C126.719 4.9375 126.672 5.14062 126.609 5.29688C126.516 5.51562 126.344 5.78125 126.094 6.09375C125.875 6.40625 125.594 6.65625 125.25 6.84375C125 7 124.703 7.17188 124.359 7.35938C124.047 7.54688 123.766 7.67188 123.516 7.73438C123.328 7.79688 123.156 7.8125 123 7.78125C122.875 7.71875 122.734 7.70312 122.578 7.73438C122.203 7.85938 121.906 8.09375 121.688 8.4375C121.5 8.75 121.344 9.0625 121.219 9.375C120.688 9.8125 120.125 10.1719 119.531 10.4531C118.938 10.7031 118.359 11 117.797 11.3438C117.172 11.6875 116.562 12 115.969 12.2812C115.375 12.5625 114.781 12.8594 114.188 13.1719C113.438 13.5469 112.734 14.0312 112.078 14.625C111.422 15.2188 110.734 15.75 110.016 16.2188C109.266 16.6562 108.531 17.1406 107.812 17.6719C107.125 18.1719 106.5 18.7188 105.938 19.3125C105.75 19.375 105.453 19.5 105.047 19.6875C104.641 19.875 104.406 20.0938 104.344 20.3438C104.312 20.4688 104.344 20.6094 104.438 20.7656C104.562 20.9219 104.703 21.0938 104.859 21.2812C105.016 21.4375 105.156 21.5781 105.281 21.7031C105.438 21.7969 105.531 21.8594 105.562 21.8906C105.719 22.0156 105.859 22.1094 105.984 22.1719C106.141 22.2031 106.281 22.2656 106.406 22.3594C106.781 22.6719 107.109 23.0156 107.391 23.3906C107.703 23.7344 107.938 24.125 108.094 24.5625C108.25 24.9688 108.391 25.4375 108.516 25.9688C108.672 26.5 108.828 27.0312 108.984 27.5625C109.172 28.1875 109.359 28.7812 109.547 29.3438C109.766 29.9062 109.938 30.5625 110.062 31.3125C110.219 32.375 110.344 33.4531 110.438 34.5469C110.531 35.6406 110.734 36.6719 111.047 37.6406C111.109 37.7969 111.141 37.9688 111.141 38.1562C111.172 38.3125 111.219 38.4688 111.281 38.625C111.344 38.7812 111.406 38.9219 111.469 39.0469C111.531 39.2031 111.578 39.3594 111.609 39.5156C111.641 39.7344 111.625 39.9688 111.562 40.2188C111.531 40.5 111.547 40.7188 111.609 40.875C111.672 41.0312 111.797 41.2812 111.984 41.625C112.203 41.9688 112.375 42.2188 112.5 42.375C112.656 42.625 112.828 42.875 113.016 43.125C113.234 43.4062 113.438 43.6875 113.625 43.9688C113.844 44.25 114.031 44.5312 114.188 44.8125C114.375 45.0938 114.562 45.3438 114.75 45.5625C115.125 46 115.578 46.375 116.109 46.6875C116.641 47 117.094 47.3125 117.469 47.625ZM151.828 3.46875C151.797 3.625 151.781 3.79688 151.781 3.98438C151.781 4.14063 151.766 4.29687 151.734 4.45312C151.484 4.67187 151.266 4.8125 151.078 4.875C150.922 4.9375 150.781 5.09375 150.656 5.34375C150.562 5.5 150.516 5.67188 150.516 5.85938C150.516 6.04688 150.469 6.21875 150.375 6.375C150.281 6.59375 150.047 6.82812 149.672 7.07812C149.328 7.29688 149.078 7.4375 148.922 7.5C148.734 7.59375 148.531 7.67188 148.312 7.73438C148.125 7.79688 147.938 7.875 147.75 7.96875C147.469 8.09375 147.234 8.1875 147.047 8.25C146.891 8.3125 146.719 8.35938 146.531 8.39062C146.344 8.39062 146.141 8.40625 145.922 8.4375C145.703 8.4375 145.422 8.46875 145.078 8.53125C144.984 8.53125 144.922 8.5625 144.891 8.625C144.859 8.65625 144.797 8.70312 144.703 8.76562C144.609 8.82812 144.469 8.89062 144.281 8.95312C144.094 8.98438 143.812 9.01562 143.438 9.04688C143.094 9.07812 142.828 9.10938 142.641 9.14062C142.484 9.14062 142.219 9.17188 141.844 9.23438C141.625 9.29688 141.422 9.39062 141.234 9.51562C141.047 9.64062 140.844 9.75 140.625 9.84375C140.188 10.0938 139.859 10.3438 139.641 10.5938C139.453 10.8125 139.297 11.0156 139.172 11.2031C138.984 11.5156 138.891 11.875 138.891 12.2812C138.922 12.6562 138.859 13.0625 138.703 13.5C138.578 13.8125 138.375 14.125 138.094 14.4375C137.812 14.75 137.609 15.0781 137.484 15.4219C137.453 15.5781 137.453 15.75 137.484 15.9375C137.516 16.125 137.516 16.3281 137.484 16.5469C137.422 16.9531 137.281 17.375 137.062 17.8125C136.844 18.2188 136.656 18.6562 136.5 19.125C136.438 19.375 136.406 19.625 136.406 19.875C136.438 20.125 136.422 20.375 136.359 20.625C136.266 21.2188 136.125 21.8594 135.938 22.5469C135.75 23.2031 135.578 23.8594 135.422 24.5156C135.359 24.8906 135.328 25.2812 135.328 25.6875C135.359 26.0625 135.328 26.3906 135.234 26.6719C135.172 26.9531 135.047 27.2188 134.859 27.4688C134.703 27.7188 134.547 27.9844 134.391 28.2656C134.266 28.5156 134.172 28.7969 134.109 29.1094C134.078 29.3906 134.156 29.7031 134.344 30.0469C134.25 31.2031 134.094 32.375 133.875 33.5625C133.656 34.75 133.375 35.8906 133.031 36.9844C132.938 37.3281 132.781 37.7812 132.562 38.3438C132.375 38.9062 132.188 39.2656 132 39.4219C131.812 39.5781 131.562 39.6719 131.25 39.7031C130.969 39.7656 130.672 39.7656 130.359 39.7031C130.078 39.6406 129.812 39.5312 129.562 39.375C129.312 39.2188 129.141 39.0312 129.047 38.8125C128.859 38.9375 128.688 39.1094 128.531 39.3281C128.406 39.5469 128.219 39.7188 127.969 39.8438C127.656 40 127.328 40.0625 126.984 40.0312C126.672 40 126.344 40.0625 126 40.2188C125.688 40.3438 125.406 40.4844 125.156 40.6406C124.906 40.8281 124.656 40.9531 124.406 41.0156C124.25 41.0781 124.094 41.0938 123.938 41.0625C123.812 41.0625 123.688 41.0938 123.562 41.1562C123.375 41.25 123.234 41.4062 123.141 41.625C123.047 41.8438 122.906 42.0156 122.719 42.1406C122.469 42.0781 122.188 42.0312 121.875 42C121.562 42 121.328 41.9219 121.172 41.7656C121.109 40.9531 121.234 40.2344 121.547 39.6094C121.859 39.0156 122.094 38.4219 122.25 37.8281C122.375 37.4844 122.453 37.1562 122.484 36.8438C122.547 36.5312 122.609 36.1719 122.672 35.7656C122.797 35.3281 122.953 34.875 123.141 34.4062C123.328 33.9062 123.469 33.4062 123.562 32.9062C123.656 32.5625 123.703 32.2188 123.703 31.875C123.734 31.5 123.812 31.1406 123.938 30.7969C124 30.5469 124.156 30.2812 124.406 30C124.656 29.6875 124.844 29.3594 124.969 29.0156C125.094 28.6719 125.203 28.2812 125.297 27.8438C125.391 27.4062 125.516 26.9844 125.672 26.5781C125.828 26.0469 126.047 25.5938 126.328 25.2188C126.641 24.8438 126.781 24.4219 126.75 23.9531C126.75 23.7344 126.703 23.5625 126.609 23.4375C126.516 23.3125 126.469 23.1719 126.469 23.0156C126.438 22.7656 126.469 22.4219 126.562 21.9844C126.656 21.5469 126.75 21.1562 126.844 20.8125C127 20.1562 127.156 19.5625 127.312 19.0312C127.469 18.5 127.625 17.9688 127.781 17.4375C127.844 17.1875 127.891 16.9531 127.922 16.7344C127.984 16.4844 128.047 16.2656 128.109 16.0781C128.172 15.8281 128.266 15.625 128.391 15.4688C128.547 15.2812 128.656 15.0938 128.719 14.9062C128.781 14.6875 128.828 14.4219 128.859 14.1094C128.922 13.7969 129 13.5 129.094 13.2188C129.188 13 129.281 12.7969 129.375 12.6094C129.5 12.4219 129.578 12.2344 129.609 12.0469C129.672 11.6406 129.609 11.2656 129.422 10.9219C129.266 10.5781 129.188 10.2188 129.188 9.84375C128.844 9.59375 128.438 9.45312 127.969 9.42188C127.5 9.35938 127.047 9.34375 126.609 9.375C126.172 9.40625 125.781 9.4375 125.438 9.46875C125.094 9.46875 124.703 9.48438 124.266 9.51562C123.547 9.54688 122.922 9.60938 122.391 9.70312C121.859 9.79688 121.344 9.89062 120.844 9.98438C120.375 10.0781 119.891 10.1562 119.391 10.2188C118.891 10.25 118.328 10.25 117.703 10.2188C117.766 9.875 117.812 9.51562 117.844 9.14062C117.844 8.73438 117.891 8.40625 117.984 8.15625C118.172 8 118.359 7.92188 118.547 7.92188C118.734 7.89062 118.938 7.85938 119.156 7.82812C119.031 7.64062 118.969 7.46875 118.969 7.3125C119 7.15625 119.031 7.01562 119.062 6.89062C119.125 6.73437 119.188 6.59375 119.25 6.46875C119.344 6.3125 119.406 6.17187 119.438 6.04688C119.5 5.73438 119.516 5.42187 119.484 5.10938C119.484 4.79688 119.625 4.54688 119.906 4.35938C120.344 4.32813 120.734 4.32813 121.078 4.35938C121.422 4.39062 121.75 4.4375 122.062 4.5C122.375 4.53125 122.688 4.5625 123 4.59375C123.344 4.625 123.734 4.625 124.172 4.59375C125.172 4.53125 125.984 4.45312 126.609 4.35938C127.266 4.26562 128.062 4.20312 129 4.17188C129.656 4.17188 130.281 4.1875 130.875 4.21875C131.5 4.21875 132.078 4.25 132.609 4.3125C133.172 4.40625 133.578 4.45312 133.828 4.45312C134.109 4.45312 134.359 4.45312 134.578 4.45312C134.797 4.42188 135.031 4.39062 135.281 4.35938C135.531 4.32813 135.906 4.3125 136.406 4.3125C136.938 4.3125 137.438 4.28125 137.906 4.21875C138.406 4.125 138.922 4.09375 139.453 4.125C140.047 4.125 140.453 4.17188 140.672 4.26562C140.922 4.32813 141.125 4.39062 141.281 4.45312C141.438 4.51563 141.609 4.57812 141.797 4.64062C141.984 4.67187 142.328 4.65625 142.828 4.59375C143.172 4.53125 143.391 4.46875 143.484 4.40625C143.578 4.3125 143.797 4.23438 144.141 4.17188C144.453 4.14063 144.766 4.14063 145.078 4.17188C145.391 4.17188 145.719 4.15625 146.062 4.125C147 4.03125 147.938 3.875 148.875 3.65625C149.844 3.40625 150.828 3.34375 151.828 3.46875ZM184.453 4.64062C184.359 4.98438 184.172 5.25 183.891 5.4375C183.641 5.625 183.344 5.78125 183 5.90625C182.688 6 182.344 6.09375 181.969 6.1875C181.594 6.25 181.25 6.34375 180.938 6.46875C180.625 6.59375 180.281 6.79688 179.906 7.07812C179.531 7.32812 179.25 7.57812 179.062 7.82812C178.656 8.35938 178.406 8.96875 178.312 9.65625C178.219 10.3438 178.078 11 177.891 11.625C177.828 11.9688 177.719 12.2969 177.562 12.6094C177.438 12.9219 177.328 13.25 177.234 13.5938C176.984 14.5312 176.656 15.5469 176.25 16.6406C175.844 17.7344 175.562 18.7969 175.406 19.8281C175.344 20.3281 175.281 20.8438 175.219 21.375C175.188 21.875 175.109 22.3906 174.984 22.9219C174.922 23.1719 174.844 23.4844 174.75 23.8594C174.656 24.2344 174.562 24.625 174.469 25.0312C174.375 25.4062 174.266 25.7656 174.141 26.1094C174.016 26.4531 173.906 26.7344 173.812 26.9531C173.719 27.1406 173.594 27.2812 173.438 27.375C173.281 27.4375 173.156 27.5625 173.062 27.75C172.906 28.0625 172.812 28.4062 172.781 28.7812C172.75 29.1562 172.688 29.5 172.594 29.8125C172.469 30.2812 172.359 30.6562 172.266 30.9375C172.203 31.2188 172.125 31.4688 172.031 31.6875C171.969 31.9062 171.875 32.1562 171.75 32.4375C171.625 32.6875 171.438 33.0312 171.188 33.4688C171.094 33.625 170.891 33.8125 170.578 34.0312C170.297 34.25 170.078 34.4688 169.922 34.6875C169.766 34.875 169.625 35.0781 169.5 35.2969C169.375 35.5156 169.234 35.7031 169.078 35.8594C168.797 36.1719 168.359 36.4531 167.766 36.7031C167.172 36.9219 166.688 37.1406 166.312 37.3594C165.969 37.6094 165.609 37.875 165.234 38.1562C164.859 38.4375 164.484 38.6562 164.109 38.8125C163.766 38.9688 163.375 39.0938 162.938 39.1875C162.5 39.2812 162.094 39.3906 161.719 39.5156C161.344 39.6406 160.938 39.7656 160.5 39.8906C160.094 40.0156 159.688 40.0938 159.281 40.125C158.625 40.1875 157.891 40.2656 157.078 40.3594C156.266 40.4531 155.5 40.4688 154.781 40.4062C153.781 40.3438 152.922 40.3438 152.203 40.4062C151.516 40.5 150.781 40.4375 150 40.2188C147.812 39.625 146.141 38.5156 144.984 36.8906C143.828 35.2344 143.312 33.1719 143.438 30.7031C143.5 30.0156 143.547 29.3594 143.578 28.7344C143.609 28.1094 143.734 27.4062 143.953 26.625C144.078 26.0938 144.172 25.5625 144.234 25.0312C144.297 24.4688 144.359 23.9375 144.422 23.4375C144.516 22.9375 144.656 22.4688 144.844 22.0312C145.031 21.5938 145.312 21.2188 145.688 20.9062C146.031 19.9375 146.25 19 146.344 18.0938C146.469 17.1562 146.609 16.2344 146.766 15.3281C146.859 14.8281 147.016 14.3438 147.234 13.875C147.453 13.375 147.641 12.9062 147.797 12.4688C147.953 12.0938 148.078 11.7344 148.172 11.3906C148.266 11.0156 148.391 10.6562 148.547 10.3125C148.609 10.0625 148.703 9.85938 148.828 9.70312C148.953 9.51562 149.047 9.32812 149.109 9.14062C149.359 8.48438 149.547 7.84375 149.672 7.21875C149.828 6.59375 150.078 5.96875 150.422 5.34375C150.734 5.34375 151.078 5.29688 151.453 5.20312C151.859 5.07813 152.25 4.95312 152.625 4.82812C153.031 4.67187 153.438 4.5625 153.844 4.5C154.25 4.40625 154.641 4.375 155.016 4.40625C155.234 4.4375 155.484 4.51563 155.766 4.64062C156.078 4.76562 156.344 4.92188 156.562 5.10938C156.812 5.29688 157.016 5.51562 157.172 5.76562C157.328 5.98437 157.391 6.21875 157.359 6.46875C157.297 6.8125 157.109 7.10938 156.797 7.35938C156.484 7.60938 156.266 7.875 156.141 8.15625C156.078 8.3125 156.062 8.46875 156.094 8.625C156.125 8.75 156.125 8.89062 156.094 9.04688C156.031 9.29688 155.938 9.57812 155.812 9.89062C155.688 10.2031 155.578 10.5156 155.484 10.8281C155.109 11.8594 154.734 12.9375 154.359 14.0625C154.016 15.1875 153.703 16.3281 153.422 17.4844C153.266 18.2031 153.125 18.9062 153 19.5938C152.875 20.25 152.688 20.8906 152.438 21.5156C152.281 21.9531 152.078 22.2812 151.828 22.5C151.609 22.7188 151.422 23 151.266 23.3438C151.047 23.9062 150.953 24.625 150.984 25.5C151.016 26.375 150.969 27.2188 150.844 28.0312C150.688 28.9062 150.547 29.6562 150.422 30.2812C150.297 30.9062 150.312 31.5469 150.469 32.2031C150.531 32.4219 150.625 32.6094 150.75 32.7656C150.906 32.9219 151.047 33.125 151.172 33.375C151.328 33.7812 151.453 34.1094 151.547 34.3594C151.672 34.5781 151.859 34.7188 152.109 34.7812C152.297 34.8125 152.484 34.7969 152.672 34.7344C152.859 34.6719 153.047 34.6406 153.234 34.6406C153.547 34.6406 153.812 34.6875 154.031 34.7812C154.25 34.8438 154.469 34.9219 154.688 35.0156C154.906 35.0781 155.141 35.1406 155.391 35.2031C155.641 35.2344 155.953 35.2188 156.328 35.1562C156.609 35.0938 156.906 35 157.219 34.875C157.531 34.75 157.812 34.625 158.062 34.5C158.406 34.3438 158.688 34.25 158.906 34.2188C159.125 34.1562 159.328 34.0625 159.516 33.9375C160.234 33.5938 160.766 33.2031 161.109 32.7656C161.484 32.2969 161.922 31.7969 162.422 31.2656C162.672 31.2031 162.891 31.1406 163.078 31.0781C163.297 30.9844 163.469 30.8594 163.594 30.7031C163.625 30.5469 163.578 30.3594 163.453 30.1406C163.328 29.9219 163.281 29.6875 163.312 29.4375C163.312 29.2812 163.359 29.125 163.453 28.9688C163.547 28.8125 163.625 28.625 163.688 28.4062C163.75 28.2188 163.797 28.0156 163.828 27.7969C163.891 27.5469 163.953 27.3281 164.016 27.1406C164.078 26.9531 164.188 26.7969 164.344 26.6719C164.531 26.5156 164.672 26.3125 164.766 26.0625C164.859 25.7188 164.875 25.375 164.812 25.0312C164.781 24.6562 164.781 24.2812 164.812 23.9062C164.812 23.4688 164.891 23.0625 165.047 22.6875C165.203 22.2812 165.359 21.8125 165.516 21.2812C165.641 20.8125 165.719 20.3281 165.75 19.8281C165.781 19.3281 165.859 18.8594 165.984 18.4219C166.047 18.1719 166.141 17.9531 166.266 17.7656C166.422 17.5781 166.547 17.375 166.641 17.1562C166.828 16.7188 166.984 16.25 167.109 15.75C167.234 15.25 167.359 14.7656 167.484 14.2969C167.641 13.8281 167.781 13.3594 167.906 12.8906C168.062 12.4219 168.172 11.9688 168.234 11.5312C168.297 11.1875 168.328 10.875 168.328 10.5938C168.359 10.2812 168.406 9.95312 168.469 9.60938C168.531 9.32812 168.625 9.07812 168.75 8.85938C168.906 8.60938 169.031 8.34375 169.125 8.0625C169.188 7.84375 169.203 7.625 169.172 7.40625C169.172 7.1875 169.203 6.98438 169.266 6.79688C169.516 6.07812 169.969 5.60937 170.625 5.39062C171.312 5.14062 172.109 4.9375 173.016 4.78125C173.297 4.71875 173.656 4.65625 174.094 4.59375C174.562 4.5 174.922 4.46875 175.172 4.5C175.328 4.53125 175.453 4.60938 175.547 4.73438C175.672 4.82812 175.812 4.89063 175.969 4.92188C176.281 4.95312 176.578 4.85937 176.859 4.64062C177.172 4.42188 177.5 4.28125 177.844 4.21875C178.156 4.125 178.484 4.04688 178.828 3.98438C179.203 3.92187 179.609 3.90625 180.047 3.9375C180.328 4 180.609 4.07812 180.891 4.17188C181.203 4.26562 181.516 4.34375 181.828 4.40625C182.297 4.4375 182.766 4.42188 183.234 4.35938C183.734 4.26562 184.141 4.35938 184.453 4.64062ZM202.359 8.57812C202.297 8.42188 202.281 8.3125 202.312 8.25C202.344 8.1875 202.359 8.0625 202.359 7.875C202.016 7.6875 201.672 7.64062 201.328 7.73438C201.016 7.82812 200.688 7.89062 200.344 7.92188C200 7.92188 199.594 7.875 199.125 7.78125C198.688 7.6875 198.219 7.59375 197.719 7.5C197.25 7.40625 196.766 7.34375 196.266 7.3125C195.766 7.25 195.281 7.26562 194.812 7.35938C194.562 7.42188 194.203 7.57812 193.734 7.82812C193.266 8.04688 192.922 8.21875 192.703 8.34375C191.984 8.78125 191.469 9.42188 191.156 10.2656C190.844 11.1094 190.562 11.9688 190.312 12.8438C190.188 12.9688 190.047 13.0781 189.891 13.1719C189.766 13.2656 189.672 13.3906 189.609 13.5469C189.609 13.7656 189.688 13.9375 189.844 14.0625C190.031 14.1875 190.156 14.3438 190.219 14.5312C190.406 15 190.578 15.4688 190.734 15.9375C190.891 16.4062 191.094 16.8438 191.344 17.25C191.75 17.875 192.312 18.375 193.031 18.75C193.781 19.125 194.531 19.4844 195.281 19.8281C195.812 20.1094 196.266 20.3281 196.641 20.4844C197.047 20.6094 197.516 20.7969 198.047 21.0469C198.359 21.2031 198.641 21.3125 198.891 21.375C199.141 21.4375 199.375 21.5156 199.594 21.6094C199.812 21.7031 200.016 21.8281 200.203 21.9844C200.391 22.1094 200.594 22.2969 200.812 22.5469C201 22.7344 201.172 22.9219 201.328 23.1094C201.516 23.2969 201.688 23.4688 201.844 23.625C202.188 23.9688 202.422 24.2969 202.547 24.6094C202.703 24.8906 203 25.1406 203.438 25.3594C203.5 25.6719 203.641 25.9375 203.859 26.1562C204.078 26.3438 204.219 26.5625 204.281 26.8125C204.344 27.1562 204.297 27.4531 204.141 27.7031C203.984 27.9531 203.922 28.2344 203.953 28.5469C203.984 28.8281 204.078 29.0625 204.234 29.25C204.422 29.4062 204.547 29.6094 204.609 29.8594C204.672 30.1094 204.672 30.3906 204.609 30.7031C204.547 31.0156 204.453 31.3281 204.328 31.6406C204.172 32.1094 204.047 32.5625 203.953 33C203.891 33.4375 203.797 33.8594 203.672 34.2656C203.547 34.6719 203.375 35.0625 203.156 35.4375C202.938 35.7812 202.609 36.0938 202.172 36.375C202.047 36.4375 201.906 36.5 201.75 36.5625C201.625 36.5938 201.5 36.6406 201.375 36.7031C201.219 36.7656 201.094 36.8438 201 36.9375C200.906 37.0312 200.812 37.1094 200.719 37.1719C200.594 37.2344 200.453 37.2812 200.297 37.3125C200.172 37.3438 200.047 37.3906 199.922 37.4531C199.734 37.5469 199.562 37.6719 199.406 37.8281C199.25 37.9531 199.078 38.0469 198.891 38.1094C198.578 38.2656 198.344 38.4844 198.188 38.7656C198.031 39.0156 197.75 39.2188 197.344 39.375C197 39.5312 196.719 39.7344 196.5 39.9844C196.281 40.2344 196.031 40.3906 195.75 40.4531C195.281 40.5469 194.797 40.5312 194.297 40.4062C193.797 40.2812 193.297 40.2188 192.797 40.2188C192.297 40.1875 191.781 40.2031 191.25 40.2656C190.719 40.3594 190.188 40.4219 189.656 40.4531C189.094 40.5156 188.484 40.5781 187.828 40.6406C187.203 40.7344 186.672 40.7344 186.234 40.6406C185.859 40.5781 185.375 40.4688 184.781 40.3125C184.188 40.1875 183.594 40.0312 183 39.8438C182.406 39.6875 181.844 39.5 181.312 39.2812C180.812 39.0938 180.453 38.8906 180.234 38.6719C180.078 38.5156 179.938 38.3281 179.812 38.1094C179.719 37.8594 179.594 37.6562 179.438 37.5C179.094 37.1562 178.688 36.8281 178.219 36.5156C177.75 36.1719 177.406 35.8125 177.188 35.4375C177.094 35.25 177.031 35.0625 177 34.875C176.938 34.6562 176.875 34.4375 176.812 34.2188C176.75 34 176.656 33.7969 176.531 33.6094C176.406 33.4219 176.328 33.25 176.297 33.0938C176.266 32.9062 176.297 32.75 176.391 32.625C176.484 32.4688 176.547 32.3125 176.578 32.1562C176.641 31.8125 176.688 31.4688 176.719 31.125C176.719 30.7812 176.844 30.4688 177.094 30.1875C177.375 30.125 177.766 29.9688 178.266 29.7188C178.766 29.4688 179.234 29.2812 179.672 29.1562C180.141 29 180.5 28.9531 180.75 29.0156C181.031 29.0781 181.062 29.3906 180.844 29.9531C181.156 30.1406 181.375 30.3906 181.5 30.7031C181.625 30.9844 181.703 31.2969 181.734 31.6406C181.797 31.9531 181.844 32.2969 181.875 32.6719C181.938 33.0469 182.047 33.4062 182.203 33.75C182.359 34.125 182.672 34.4375 183.141 34.6875C183.641 34.9375 184.016 35.2031 184.266 35.4844C184.734 35.4531 185.172 35.5 185.578 35.625C185.984 35.75 186.375 35.8906 186.75 36.0469C187.156 36.1719 187.562 36.2969 187.969 36.4219C188.406 36.5156 188.875 36.5312 189.375 36.4688C189.562 36.4375 189.75 36.2812 189.938 36C190.156 35.6875 190.359 35.5156 190.547 35.4844C191.359 35.2969 192.109 35.1875 192.797 35.1562C193.484 35.125 194.094 34.875 194.625 34.4062C195.031 34.0625 195.344 33.7344 195.562 33.4219C195.812 33.1094 195.953 32.7344 195.984 32.2969C196.016 31.7969 195.953 31.4062 195.797 31.125C195.672 30.8125 195.484 30.5625 195.234 30.375C194.984 30.1875 194.688 30.0156 194.344 29.8594C194.031 29.7031 193.719 29.5 193.406 29.25C193.219 29.125 193.031 28.9844 192.844 28.8281C192.688 28.6719 192.531 28.5625 192.375 28.5C191.75 28.2188 191.062 27.9844 190.312 27.7969C189.594 27.5781 188.922 27.3281 188.297 27.0469C187.984 26.8906 187.719 26.6094 187.5 26.2031C187.281 25.7969 187 25.5625 186.656 25.5C186.5 25.4375 186.328 25.4375 186.141 25.5C185.953 25.5625 185.75 25.5781 185.531 25.5469C185.281 25.5156 184.938 25.375 184.5 25.125C184.094 24.875 183.812 24.6719 183.656 24.5156C183.562 24.4219 183.484 24.2969 183.422 24.1406C183.359 23.9531 183.266 23.7969 183.141 23.6719C182.922 23.3906 182.688 23.1406 182.438 22.9219C182.188 22.7031 182.016 22.4688 181.922 22.2188C181.859 22.0312 181.812 21.8594 181.781 21.7031C181.781 21.5469 181.75 21.3906 181.688 21.2344C181.625 21.1094 181.547 21 181.453 20.9062C181.359 20.8125 181.266 20.7031 181.172 20.5781C181.109 20.4219 181.078 20.2656 181.078 20.1094C181.078 19.9219 181.047 19.7344 180.984 19.5469C180.797 18.9844 180.609 18.5 180.422 18.0938C180.234 17.6562 180.172 17.0625 180.234 16.3125C180.266 15.8125 180.234 15.4219 180.141 15.1406C180.078 14.8594 180.094 14.5469 180.188 14.2031C180.25 13.9531 180.312 13.7344 180.375 13.5469C180.438 13.3281 180.516 13.0938 180.609 12.8438C180.672 12.625 180.703 12.4062 180.703 12.1875C180.734 11.9688 180.781 11.7812 180.844 11.625C180.938 11.4688 181.062 11.2969 181.219 11.1094C181.406 10.9219 181.562 10.7344 181.688 10.5469C182.031 10.0156 182.375 9.48438 182.719 8.95312C183.062 8.39062 183.516 7.92188 184.078 7.54688C184.328 7.04688 184.781 6.54687 185.438 6.04688C186.094 5.51562 186.75 5.10938 187.406 4.82812C188.125 4.48437 188.922 4.125 189.797 3.75C190.672 3.34375 191.422 3.07812 192.047 2.95312C192.516 2.85938 192.969 2.8125 193.406 2.8125C193.844 2.8125 194.312 2.8125 194.812 2.8125C195.594 2.78125 196.203 2.78125 196.641 2.8125C197.078 2.84375 197.609 2.90625 198.234 3C198.484 3.0625 198.75 3.10938 199.031 3.14062C199.344 3.17187 199.609 3.21875 199.828 3.28125C199.984 3.34375 200.109 3.42188 200.203 3.51562C200.297 3.57813 200.453 3.625 200.672 3.65625C201.016 3.6875 201.359 3.65625 201.703 3.5625C202.078 3.4375 202.438 3.39063 202.781 3.42188C203.406 3.48438 203.906 3.64062 204.281 3.89062C204.688 4.14063 205.141 4.40625 205.641 4.6875C205.922 4.84375 206.203 4.98438 206.484 5.10938C206.766 5.23437 206.984 5.375 207.141 5.53125C207.328 5.71875 207.516 5.98437 207.703 6.32812C207.891 6.67188 208.062 7.04688 208.219 7.45312C208.375 7.82812 208.5 8.21875 208.594 8.625C208.719 9.03125 208.781 9.375 208.781 9.65625C208.781 9.8125 208.766 9.95312 208.734 10.0781C208.703 10.2031 208.688 10.3438 208.688 10.5C208.719 10.75 208.812 11.0312 208.969 11.3438C209.125 11.6562 209.172 11.9844 209.109 12.3281C209.078 12.5781 208.953 12.7812 208.734 12.9375C208.547 13.0625 208.375 13.2344 208.219 13.4531C208.094 13.6406 208 13.8594 207.938 14.1094C207.875 14.3281 207.781 14.5156 207.656 14.6719C207.5 14.8906 207.344 15.0781 207.188 15.2344C207.062 15.3906 206.969 15.5781 206.906 15.7969C206.594 16.1406 206.109 16.4531 205.453 16.7344C204.828 16.9844 204.125 17.1875 203.344 17.3438C202.562 17.5 201.766 17.5781 200.953 17.5781C200.172 17.5781 199.484 17.4844 198.891 17.2969C198.734 17.2344 198.578 17.1406 198.422 17.0156C198.297 16.8906 198.141 16.7969 197.953 16.7344C197.766 16.6719 197.562 16.625 197.344 16.5938C197.156 16.5625 197 16.5 196.875 16.4062C196.688 16.2812 196.406 16 196.031 15.5625C195.688 15.0938 195.484 14.7344 195.422 14.4844C195.297 14.2656 195.234 14.0312 195.234 13.7812C195.266 13.5 195.297 13.2031 195.328 12.8906C195.391 12.6094 195.438 12.2656 195.469 11.8594C195.531 11.4219 195.656 11.125 195.844 10.9688C195.906 10.9062 196.047 10.8281 196.266 10.7344C196.484 10.6406 196.719 10.6406 196.969 10.7344C197.219 10.7969 197.438 10.9688 197.625 11.25C197.812 11.5312 198 11.8438 198.188 12.1875C198.375 12.5 198.562 12.8125 198.75 13.125C198.969 13.4062 199.203 13.6094 199.453 13.7344C199.828 13.9531 200.281 14.0781 200.812 14.1094C201.375 14.1094 201.828 14.0312 202.172 13.875C202.766 13.6875 203.203 13.375 203.484 12.9375C203.797 12.5 203.953 12.0156 203.953 11.4844C203.953 10.9531 203.812 10.4375 203.531 9.9375C203.281 9.40625 202.891 8.95312 202.359 8.57812Z" fill="#1A8B9D"/>
</svg>
