<svg width="319.1199951171875px" height="124.439990234375px" xmlns="http://www.w3.org/2000/svg" viewBox="90.44000244140625 12.780004882812499 319.1199951171875 124.439990234375" style="background: none;" preserveAspectRatio="xMidYMid"><defs><filter id="editing-extrusion" x="-100%" y="-100%" width="300%" height="300%"><feFlood result="color1" flood-color="#444"></feFlood><feConvolveMatrix order="8,8" divisor="1" kernelMatrix="1 0 0 0 0 0 0 0 0 1 0 0 0 0 0 0 0 0 1 0 0 0 0 0 0 0 0 1 0 0 0 0 0 0 0 0 1 0 0 0 0 0 0 0 0 1 0 0 0 0 0 0 0 0 1 0 0 0 0 0 0 0 0 1" in="SourceAlpha" result="extrude"></feConvolveMatrix><feComposite in="color1" in2="extrude" result="comp-extrude" operator="in"></feComposite><feOffset dx="4" dy="4" in="comp-extrude" result="offset-extrude"></feOffset><feMerge><feMergeNode in="offset-extrude"></feMergeNode><feMergeNode in="SourceGraphic"></feMergeNode></feMerge></filter></defs><g filter="url(#editing-extrusion)"><g transform="translate(142.1949942111969, 98.68000030517578)"><path d="M14.14 0L0.51 0L7.81-38.91L8.51-42.24L22.21-42.24L14.14 0ZM40.13-3.78L40.13-3.78L40.13-3.78Q38.40 1.28 31.74 1.28L31.74 1.28L31.74 1.28Q26.82 1.28 23.42-4.61L23.42-4.61L23.42-4.61Q19.97-10.50 19.33-20.10L19.33-20.10L19.33-20.10Q26.37-32.96 31.23-38.27L31.23-38.27L31.23-38.27Q35.90-43.33 40.77-43.33L40.77-43.33L40.77-43.33Q43.39-43.33 45.28-41.92L45.28-41.92L45.28-41.92Q47.17-40.51 47.62-38.27L47.62-38.27L47.62-38.27Q45.44-37.38 44.42-36.67L44.42-36.67L44.42-36.67Q41.86-34.75 38.40-30.46L38.40-30.46L32.58-23.49L32.58-23.49Q31.17-21.82 30.59-21.06L30.59-21.06L30.59-21.06Q31.55-15.68 34.43-10.37L34.43-10.37L34.43-10.37Q37.18-5.31 40.13-3.78ZM46.56-1.92L46.56-1.92L46.56-1.92Q45.06-3.58 44.38-6.21L44.38-6.21L44.38-6.21Q43.71-8.83 43.71-13.12L43.71-13.12L43.71-13.12Q43.71-17.41 45.18-21.31L45.18-21.31L45.18-21.31Q46.66-25.22 49.34-28.03L49.34-28.03L49.34-28.03Q54.85-33.92 63.94-33.92L63.94-33.92L63.94-33.92Q67.20-33.92 69.57-32.83L69.57-32.83L80.51-33.92L75.78-8.96L75.78-8.96Q75.58-8.19 75.58-6.78L75.58-6.78L75.58-6.78Q75.58-5.38 76.45-4.48L76.45-4.48L76.45-4.48Q77.31-3.58 78.59-3.46L78.59-3.46L78.59-3.46Q77.95-1.28 75.62 0L75.62 0L75.62 0Q73.28 1.28 70.66 1.28L70.66 1.28L70.66 1.28Q68.03 1.28 66.27 0.29L66.27 0.29L66.27 0.29Q64.51-0.70 64-2.37L64-2.37L64-2.37Q62.98-0.77 60.80 0.26L60.80 0.26L60.80 0.26Q58.62 1.28 55.71 1.28L55.71 1.28L55.71 1.28Q52.80 1.28 50.43 0.51L50.43 0.51L50.43 0.51Q48.06-0.26 46.56-1.92ZM60.06-27.90L60.06-27.90L60.06-27.90Q59.33-26.75 58.69-24.80L58.69-24.80L58.69-24.80Q58.05-22.85 56.99-17.63L56.99-17.63L56.99-17.63Q55.94-12.42 55.94-8.70L55.94-8.70L55.94-8.70Q55.94-4.99 56.51-3.90L56.51-3.90L56.51-3.90Q57.09-2.82 58.11-2.82L58.11-2.82L58.11-2.82Q60.16-2.82 61.66-4.77L61.66-4.77L61.66-4.77Q63.17-6.72 63.74-10.18L63.74-10.18L67.14-28.93L67.14-28.93Q65.79-30.08 64.22-30.08L64.22-30.08L64.22-30.08Q62.66-30.08 61.73-29.57L61.73-29.57L61.73-29.57Q60.80-29.06 60.06-27.90ZM100.48-30.34L100.48-30.34L100.48-30.34Q103.94-33.92 111.23-33.92L111.23-33.92L111.23-33.92Q115.26-33.92 117.47-31.78L117.47-31.78L117.47-31.78Q119.68-29.63 119.68-25.70L119.68-25.70L119.68-25.70Q119.68-21.76 117.47-18.98L117.47-18.98L117.47-18.98Q115.26-16.19 111.17-15.04L111.17-15.04L111.17-15.04Q111.49-13.76 111.94-12.42L111.94-12.42L112.83-9.86L112.83-9.86Q114.05-6.59 115.01-5.44L115.01-5.44L115.01-5.44Q115.97-4.29 117.25-3.90L117.25-3.90L117.25-3.90Q116.54-1.28 113.98 0.13L113.98 0.13L113.98 0.13Q111.94 1.28 109.12 1.28L109.12 1.28L109.12 1.28Q100.86 1.28 99.78-11.46L99.78-11.46L99.78-11.46Q99.58-13.25 99.58-15.04L99.58-15.04L99.58-15.04Q102.78-15.94 105.02-18.94L105.02-18.94L105.02-18.94Q107.26-21.95 107.26-25.47L107.26-25.47L107.26-25.47Q107.26-28.99 104.77-28.99L104.77-28.99L104.77-28.99Q102.98-28.99 101.57-27.01L101.57-27.01L101.57-27.01Q100.16-25.02 99.52-21.63L99.52-21.63L95.30 0L82.37 1.28L91.33-44.80L104.19-46.08L102.72-38.46L102.72-38.46Q101.76-33.09 100.48-30.34ZM123.65-6.40L123.65-6.40L123.65-6.40Q123.65-8.13 124.54-12.48L124.54-12.48L127.94-29.76L124.16-29.76L124.42-31.68L124.42-31.68Q132.10-33.98 139.52-39.62L139.52-39.62L142.59-39.62L141.06-32.64L146.05-32.64L145.47-29.76L140.54-29.76L137.28-12.48L137.28-12.48Q136.45-8.51 136.45-7.17L136.45-7.17L136.45-7.17Q136.45-4.10 139.14-3.46L139.14-3.46L139.14-3.46Q138.50-1.28 136.19 0L136.19 0L136.19 0Q133.89 1.28 130.62 1.28L130.62 1.28L130.62 1.28Q127.36 1.28 125.50-0.77L125.50-0.77L125.50-0.77Q123.65-2.82 123.65-6.40ZM166.27-2.69L166.27-2.69L166.27-2.69Q163.20 1.28 155.58 1.28L155.58 1.28L155.58 1.28Q151.62 1.28 148.74-1.12L148.74-1.12L148.74-1.12Q145.86-3.52 145.86-6.98L145.86-6.98L145.86-6.98Q145.86-8.90 146.05-9.86L146.05-9.86L150.34-32.64L163.33-33.92L158.66-9.22L158.66-9.22Q158.40-7.81 158.40-6.98L158.40-6.98L158.40-6.98Q158.40-3.26 160.64-3.26L160.64-3.26L160.64-3.26Q163.14-3.26 164.93-6.66L164.93-6.66L164.93-6.66Q165.50-7.74 165.76-9.15L165.76-9.15L170.30-32.64L182.91-33.92L178.18-8.96L178.18-8.96Q177.98-8 177.98-6.98L177.98-6.98L177.98-6.98Q177.98-5.95 178.56-4.83L178.56-4.83L178.56-4.83Q179.14-3.71 180.99-3.46L180.99-3.46L180.99-3.46Q180.61-1.92 179.26-0.90L179.26-0.90L179.26-0.90Q176.45 1.28 173.41 1.28L173.41 1.28L173.41 1.28Q170.37 1.28 168.58 0.19L168.58 0.19L168.58 0.19Q166.78-0.90 166.27-2.69ZM205.50-22.46L205.50-22.46L205.50-22.46Q206.40-24.83 206.40-26.88L206.40-26.88L206.40-26.88Q206.40-30.66 203.33-30.66L203.33-30.66L203.33-30.66Q201.73-30.66 200.42-29.22L200.42-29.22L200.42-29.22Q199.10-27.78 199.10-25.98L199.10-25.98L199.10-25.98Q199.10-24.70 200.13-23.68L200.13-23.68L200.13-23.68Q201.60-22.27 205.38-19.97L205.38-19.97L205.38-19.97Q209.15-17.66 210.59-15.78L210.59-15.78L210.59-15.78Q212.03-13.89 212.03-11.30L212.03-11.30L212.03-11.30Q212.03-8.70 210.78-6.34L210.78-6.34L210.78-6.34Q209.54-3.97 207.30-2.30L207.30-2.30L207.30-2.30Q202.50 1.28 194.82 1.28L194.82 1.28L194.82 1.28Q190.66 1.28 187.46-0.90L187.46-0.90L187.46-0.90Q184.26-3.01 184.26-5.50L184.26-5.50L184.26-5.50Q184.26-8 186.08-9.47L186.08-9.47L186.08-9.47Q187.90-10.94 190.59-10.94L190.59-10.94L190.59-10.94Q193.28-10.94 194.94-9.92L194.94-9.92L194.94-9.92Q194.11-7.81 194.11-6.40L194.11-6.40L194.11-6.40Q194.11-2.18 197.70-2.18L197.70-2.18L197.70-2.18Q199.23-2.18 200.26-3.14L200.26-3.14L200.26-3.14Q201.28-4.10 201.28-5.76L201.28-5.76L201.28-5.76Q201.28-9.02 195.78-12.48L195.78-12.48L195.78-12.48Q191.30-15.42 190.27-16.58L190.27-16.58L190.27-16.58Q188.54-18.62 188.54-21.18L188.54-21.18L188.54-21.18Q188.54-23.74 189.76-26.18L189.76-26.18L189.76-26.18Q190.98-28.61 193.22-30.34L193.22-30.34L193.22-30.34Q197.89-33.92 206.02-33.92L206.02-33.92L206.02-33.92Q210.18-33.92 212.64-32.26L212.64-32.26L212.64-32.26Q215.10-30.59 215.10-27.78L215.10-27.78L215.10-27.78Q215.10-24.96 213.41-23.36L213.41-23.36L213.41-23.36Q211.71-21.76 208.64-21.76L208.64-21.76L208.64-21.76Q206.53-21.76 205.50-22.46Z" fill="#ccc"></path></g></g><style>text {
  font-size: 64px;
  font-family: Arial Black;
  dominant-baseline: central;
  text-anchor: middle;
}</style></svg>